<svg height="512" viewBox="0 0 512.038 512.038" width="512" xmlns="http://www.w3.org/2000/svg"><path d="M465.934 469.856c0 13.621-11.042 24.663-24.663 24.663H70.767c-13.621 0-24.663-11.042-24.663-24.663v-245.87c0-6.711-7.302-13.141-2.512-17.842L154.509 97.282l27.373-17.051 10.378-20 47.198-46.324c9.398-8.517 23.724-8.517 33.122 0l47.198 46.324 10.377 20 29.359 19.001 108.931 106.913c4.79 4.701-2.512 11.131-2.512 17.842z" fill="#8ebaff"/><path d="M128.286 123.019h255.466L319.778 60.23H192.26z" fill="#7aa3ff"/><path d="M426.722 268.777V105.231c0-13.807-11.193-25-25-25H100.316c-13.807 0-25 11.193-25 25v163.546l142.461 101.245 26.364-14.488a24.663 24.663 0 0 1 23.756 0l26.364 14.488z" fill="#f7f9fa"/><path d="m294.261 380.021-26.364-14.488a24.663 24.663 0 0 0-23.756 0l-26.364 14.488L75.316 268.776v-58.965l134.5 134.262a14.999 14.999 0 0 0 17.821 2.53l16.504-9.07a24.663 24.663 0 0 1 23.756 0l16.504 9.07a14.999 14.999 0 0 0 17.821-2.53l97.162-96.99a25 25 0 0 0 7.338-17.693V105.23c0-13.807-11.193-25-25-25h30c13.807 0 25 11.193 25 25v163.546z" fill="#dce6eb"/><path d="M36.104 479.856c0 12.886 9.884 23.457 22.483 24.562l159.19-124.397L43.592 206.144a25 25 0 0 0-7.488 17.842zM473.934 479.856c0 12.886-7.884 23.457-20.483 24.562l-159.19-124.397 174.185-173.877c4.79 4.701 5.488 11.131 5.488 17.842z" fill="#f7f9fa"/><path d="M475.934 223.986a25 25 0 0 0-7.488-17.842l-22.512 22.472v251.24a24.538 24.538 0 0 1-4.953 14.818l12.47 9.744c12.599-1.104 22.483-11.676 22.483-24.562z" fill="#dce6eb"/><path d="M60.767 504.519h390.504c11.936-11.544 11.936-11.544 24.663-24.663L267.897 365.533a24.663 24.663 0 0 0-23.756 0L36.104 479.856c0 13.621 11.042 24.663 24.663 24.663z" fill="#fed402"/><path d="M445.934 463.37v16.486c0 13.621-11.042 24.663-24.663 24.663h30c13.621 0 24.663-11.042 24.663-24.663z" fill="#fac600"/><g><path d="M287.29 167.253a7.499 7.499 0 0 0-7.463-7.537h-.038a7.5 7.5 0 0 0-7.499 7.463l-.019 3.778c-5.307-4.085-11.769-6.398-18.961-6.398-17.689 0-35.987 15.304-35.987 40.913 0 23.357 15.819 42.36 35.263 42.36 8.453 0 16.106-3.563 22.048-9.562a24.68 24.68 0 0 0 4.612 6.483c4.182 4.203 9.57 6.518 15.173 6.518 16.214 0 26.481-11.288 30.685-21.852 6.524-16.404 7.697-30.226 3.803-44.814a10.082 10.082 0 0 0-.066-.232c-5.895-19.532-19.084-35.525-37.137-45.033-18.051-9.507-38.705-11.331-58.16-5.137-18.435 5.868-33.772 18.52-43.186 35.624-9.417 17.109-11.893 36.834-6.973 55.541 4.262 16.204 13.463 30.184 26.61 40.426 12.658 9.862 28.425 15.537 44.396 15.979l.211.003a7.5 7.5 0 0 0 .204-14.997c-26.702-.738-50.105-19.336-56.914-45.225-3.937-14.97-1.945-30.771 5.607-44.494 7.553-13.723 19.838-23.866 34.595-28.563 15.597-4.965 32.153-3.503 46.62 4.115 14.428 7.599 24.98 20.366 29.725 35.96 3.18 12.009 1.262 23.901-3.272 35.304-1.483 3.727-6.083 12.396-16.747 12.396-2.134 0-3.761-1.314-4.54-2.098-1.819-1.829-2.898-4.521-2.885-7.201zm-34.704 65.579c-9.745 0-20.263-10.461-20.263-27.36 0-16.221 10.67-25.913 20.987-25.913 10.785 0 18.401 10.019 18.797 24.512l-.013 2.742c-.572 14.483-9.102 26.019-19.508 26.019z"/><path d="M483.434 479.884V224.005c0-8.632-3.52-17.049-9.657-23.115l-.023-.026-.014-.013-.04-.041-29.478-28.931v-16.916c0-4.143-3.357-7.5-7.5-7.5s-7.5 3.357-7.5 7.5v79.758L292.943 370.758l-21.434-11.777c-9.697-5.331-21.28-5.332-30.98-.001l-21.434 11.778L82.816 234.721V105.249c0-9.649 7.851-17.5 17.5-17.5h311.406c9.649 0 17.5 7.851 17.5 17.5v17.789c0 4.143 3.357 7.5 7.5 7.5s7.5-3.357 7.5-7.5v-17.789c0-17.921-14.579-32.5-32.5-32.5h-68.501L277.834 8.573a6.008 6.008 0 0 0-.218-.205 32.055 32.055 0 0 0-43.195 0 5.98 5.98 0 0 0-.217.205l-65.388 64.176h-68.501c-17.92 0-32.5 14.579-32.5 32.5v66.631l-29.478 28.931-.036.038-.018.016-.03.033c-6.132 6.066-9.65 14.48-9.65 23.107v85.586c0 4.143 3.358 7.5 7.5 7.5s7.5-3.357 7.5-7.5v-85.586c0-2.096.404-4.161 1.13-6.104l25.283 25.238L205.4 378.283 43.604 467.196V342.277c0-4.143-3.358-7.5-7.5-7.5s-7.5 3.357-7.5 7.5V479.883c0 .04.002.079.003.119.069 17.676 14.467 32.036 32.16 32.036h276.896c4.143 0 7.5-3.357 7.5-7.5s-3.357-7.5-7.5-7.5H60.767c-8.032 0-14.773-5.553-16.635-13.017l177.257-97.408 26.364-14.488a17.076 17.076 0 0 1 16.531.001l26.363 14.487 177.258 97.409c-1.862 7.463-8.604 13.016-16.635 13.016h-80.92c-4.143 0-7.5 3.357-7.5 7.5s3.357 7.5 7.5 7.5h80.921c17.692 0 32.091-14.36 32.16-32.036l.003-.118zM244.595 19.393a17.104 17.104 0 0 1 22.848 0l54.364 53.356H190.231zM67.816 219.747l-13.563-13.539 13.563-13.311zm374.205 23.392 25.283-25.239c.726 1.943 1.13 4.009 1.13 6.105v243.19l-161.798-88.912zm15.764-36.931-13.563 13.539v-26.85z"/></g></svg>