<svg xmlns="http://www.w3.org/2000/svg"><circle cx="254.267" cy="141.25" fill="#ff9e8f" r="133.75"/><path d="M232.679 29.172c0-11.904 9.684-21.588 21.588-21.588l-.028-.084c-73.855.015-133.722 59.891-133.722 133.75 0 73.868 59.882 133.75 133.75 133.75V50.76c-11.904 0-21.588-9.684-21.588-21.588z" fill="#f77661"/><circle cx="254.267" cy="141.25" fill="#df543d" r="90.49"/><path d="M464.537 504.5H47.963c-9.639 0-17.454-7.814-17.454-17.454V144.454c0-25.38 20.574-45.954 45.954-45.954h359.574c25.38 0 45.954 20.574 45.954 45.954v342.593c0 9.639-7.814 17.453-17.454 17.453z" fill="#fff8e6"/><path d="M101.477 487.046V144.454c0-25.38 20.574-45.954 45.954-45.954H76.463c-25.38 0-45.954 20.574-45.954 45.954v342.593c0 9.639 7.814 17.454 17.454 17.454h70.968c-9.64-.001-17.454-7.815-17.454-17.455z" fill="#ffeab7"/><path d="M77.333 346.833h40v140h-40z" fill="#c9cdcf"/><path d="M77.333 346.833h20v140h-20z" fill="#b7b7b7"/><path d="M122.333 364.333h-50c-8.284 0-15-6.716-15-15v-30h80v30c0 8.285-6.715 15-15 15z" fill="#7b849b"/><path d="M87.333 349.333v-30h-30v30c0 8.284 6.716 15 15 15h30c-8.284 0-15-6.715-15-15z" fill="#5d6a85"/><path d="M137.333 504.5h-80v-20c0-8.284 6.716-15 15-15h50c8.284 0 15 6.716 15 15z" fill="#7b849b"/><path d="M87.333 484.5v20h-30v-20c0-8.284 6.716-15 15-15h30c-8.284 0-15 6.716-15 15z" fill="#5d6a85"/><path d="M394.667 346.833h40v140h-40z" fill="#c9cdcf"/><path d="M394.667 346.833h20v140h-20z" fill="#b7b7b7"/><path d="M439.667 364.333h-50c-8.284 0-15-6.716-15-15v-30h80v30c0 8.285-6.716 15-15 15z" fill="#7b849b"/><path d="M404.667 349.333v-30h-30v30c0 8.284 6.716 15 15 15h30c-8.285 0-15-6.715-15-15z" fill="#5d6a85"/><path d="M454.667 504.5h-80v-20c0-8.284 6.716-15 15-15h50c8.284 0 15 6.716 15 15z" fill="#7b849b"/><path d="M404.667 484.5v20h-30v-20c0-8.284 6.716-15 15-15h30c-8.285 0-15 6.716-15 15z" fill="#5d6a85"/><path d="M484.583 329.333H27.417c-10.817 0-19.667-8.85-19.667-19.667V306c0-10.817 8.85-19.667 19.667-19.667h457.167c10.817 0 19.667 8.85 19.667 19.667v3.667c-.001 10.816-8.851 19.666-19.668 19.666z" fill="#ff9e8f"/><path d="M111.75 309.667V306c0-10.817 8.85-19.667 19.667-19.667h-104C16.6 286.333 7.75 295.183 7.75 306v3.667c0 10.817 8.85 19.667 19.667 19.667h104c-10.817-.001-19.667-8.851-19.667-19.667z" fill="#f77661"/><path d="M343.477 504.5H172.81V393.521c0-13.267 10.755-24.021 24.021-24.021h122.624c13.267 0 24.021 10.755 24.021 24.021V504.5z" fill="#c9cdcf"/><path d="M258.143 369.5h-61.312c-13.267 0-24.021 10.755-24.021 24.021V504.5h85.333z" fill="#b7b7b7"/><circle cx="101.477" cy="148.214" fill="#60daa8" r="16.376"/><circle cx="179.81" cy="148.214" fill="#b18cd9" r="16.376"/><circle cx="258.143" cy="148.214" fill="#f9d171" r="16.376"/><circle cx="336.477" cy="148.214" fill="#f77661" r="16.376"/><circle cx="414.81" cy="148.214" fill="#b18cd9" r="16.376"/><path d="M156.124 262.009c3.865 1.476 8.203-.469 9.678-4.34l3.104-8.15h21.542l3.068 8.13a7.503 7.503 0 0 0 7.018 4.854 7.499 7.499 0 0 0 7.015-10.15l-19.671-52.124a8.67 8.67 0 0 0-8.125-5.594h-.011a8.67 8.67 0 0 0-8.039 5.403c-.023.058-.047.114-.068.173l-19.851 52.121a7.5 7.5 0 0 0 4.34 9.677zm28.662-27.49h-10.168l5.107-13.409zM305.987 195.072a7.501 7.501 0 0 0-5.268 7.16V255c0 4.143 3.357 7.5 7.5 7.5s7.5-3.357 7.5-7.5v-28.708l22.012 31.875c2.172 3.13 5.802 4.46 9.252 3.377 3.513-1.099 5.782-4.366 5.782-8.397l-.494-51.085a7.5 7.5 0 0 0-7.498-7.428h-.074a7.5 7.5 0 0 0-7.428 7.572l.284 29.309-23.164-33.544a7.502 7.502 0 0 0-8.404-2.899zM273.141 202.134V255c0 4.143 3.357 7.5 7.5 7.5s7.5-3.357 7.5-7.5v-52.866c0-4.143-3.357-7.5-7.5-7.5s-7.5 3.357-7.5 7.5zM120.697 209.634c3.795 0 7.453 1.116 10.579 3.229a7.502 7.502 0 0 0 8.398-12.43 33.776 33.776 0 0 0-18.978-5.8c-18.711 0-33.934 15.223-33.934 33.934s15.223 33.933 33.934 33.933c7.504 0 14.245-2.472 19.494-7.147a28.678 28.678 0 0 0 2.905-2.996 7.498 7.498 0 0 0-.929-10.565 7.498 7.498 0 0 0-10.565.929c-.432.514-.897.995-1.387 1.431-2.495 2.223-5.697 3.35-9.519 3.35-10.44 0-18.934-8.493-18.934-18.933.003-10.442 8.496-18.935 18.936-18.935zM239.645 247.5c-5.007 0-9.816-2.009-12.865-5.374a7.504 7.504 0 0 0-10.595-.521 7.503 7.503 0 0 0-.521 10.595c5.934 6.546 14.674 10.3 23.98 10.3 11.574 0 21.299-7.418 23.124-17.64 1.379-7.726-2.083-17.803-15.938-22.913-6.342-2.34-12.257-4.884-14.229-5.745-.959-.833-.975-1.931-.886-2.548.109-.764.678-2.634 3.58-3.508 6.967-2.097 13.502 3.02 13.728 3.199a7.5 7.5 0 0 0 9.608-11.518c-.516-.432-12.766-10.529-27.662-6.044-7.635 2.3-13.038 8.33-14.102 15.739-1.001 6.973 2.022 13.682 7.892 17.508.331.216.679.405 1.04.566.308.137 7.613 3.389 15.84 6.423 1.645.606 6.962 2.847 6.362 6.204-.452 2.539-3.776 5.277-8.356 5.277zM361.657 228.567c0 18.711 15.222 33.933 33.933 33.933s33.934-15.222 33.934-33.933-15.223-33.934-33.934-33.934-33.933 15.223-33.933 33.934zm33.933-18.933c10.44 0 18.934 8.493 18.934 18.934 0 10.439-8.493 18.933-18.934 18.933-10.439 0-18.933-8.493-18.933-18.933 0-10.441 8.493-18.934 18.933-18.934zM101.477 172.091c13.165 0 23.876-10.711 23.876-23.876 0-13.166-10.711-23.877-23.876-23.877s-23.876 10.711-23.876 23.877c0 13.165 10.711 23.876 23.876 23.876zm0-32.753c4.895 0 8.876 3.982 8.876 8.877s-3.981 8.876-8.876 8.876-8.876-3.981-8.876-8.876 3.981-8.877 8.876-8.877zM203.687 148.215c0-13.166-10.711-23.877-23.876-23.877-13.166 0-23.877 10.711-23.877 23.877 0 13.165 10.711 23.876 23.877 23.876 13.165 0 23.876-10.711 23.876-23.876zm-32.753 0c0-4.895 3.982-8.877 8.877-8.877s8.876 3.982 8.876 8.877-3.981 8.876-8.876 8.876-8.877-3.982-8.877-8.876zM258.144 124.338c-13.165 0-23.876 10.711-23.876 23.877 0 13.165 10.711 23.876 23.876 23.876s23.876-10.711 23.876-23.876c0-13.166-10.711-23.877-23.876-23.877zm0 32.753c-4.895 0-8.876-3.981-8.876-8.876s3.981-8.877 8.876-8.877 8.876 3.982 8.876 8.877-3.982 8.876-8.876 8.876zM336.477 172.091c13.165 0 23.876-10.711 23.876-23.876 0-13.166-10.711-23.877-23.876-23.877s-23.876 10.711-23.876 23.877c0 13.165 10.711 23.876 23.876 23.876zm0-32.753c4.895 0 8.876 3.982 8.876 8.877s-3.981 8.876-8.876 8.876-8.876-3.981-8.876-8.876 3.981-8.877 8.876-8.877zM414.811 172.091c13.165 0 23.876-10.711 23.876-23.876 0-13.166-10.711-23.877-23.876-23.877-13.166 0-23.877 10.711-23.877 23.877 0 13.165 10.711 23.876 23.877 23.876zm0-32.753c4.895 0 8.876 3.982 8.876 8.877s-3.981 8.876-8.876 8.876-8.877-3.981-8.877-8.876 3.982-8.877 8.877-8.877z"/><path d="M489.491 279.286V144.454c0-29.475-23.979-53.454-53.454-53.454h-49.75C365.516 36.434 312.91 0 254.267 0c-58.723 0-111.253 36.406-132.025 91H92.875c-4.143 0-7.5 3.357-7.5 7.5s3.357 7.5 7.5 7.5h80.346a7.5 7.5 0 0 0 1.236.116c.419 0 .833-.047 1.243-.116h260.337c21.204 0 38.454 17.25 38.454 38.454v134.379H432.25c-4.143 0-7.5 3.357-7.5 7.5s3.357 7.5 7.5 7.5h52.333c6.709 0 12.167 5.458 12.167 12.167v3.667c0 6.708-5.458 12.166-12.167 12.166H31.566c-.346-.049-.698-.083-1.057-.083s-.711.034-1.057.083h-2.034c-6.709 0-12.167-5.458-12.167-12.166V306c0-6.709 5.458-12.167 12.167-12.167H402.1c4.143 0 7.5-3.357 7.5-7.5s-3.357-7.5-7.5-7.5H38.009V144.454c0-16.91 11.31-32.074 27.503-36.875a7.5 7.5 0 1 0-4.263-14.381C38.734 99.873 23.01 120.95 23.01 144.454v134.742C10.119 281.309.25 292.522.25 306v3.667c0 13.478 9.869 24.69 22.759 26.803v150.576c0 13.76 11.194 24.954 24.954 24.954h416.574c13.76 0 24.954-11.194 24.954-24.954V336.38c12.644-2.318 22.259-13.41 22.259-26.713V306c0-13.303-9.615-24.396-22.259-26.714zM254.267 15c50.484 0 95.966 30.204 115.839 76h-31.739c-17.697-29.534-49.608-47.74-84.1-47.74-34.594 0-66.388 18.181-84.088 47.74h-31.76c19.868-45.82 65.293-76 115.848-76zm65.996 76H188.261c15.577-20.458 39.847-32.74 66.006-32.74 26.075 0 50.406 12.3 65.996 32.74zm46.904 393.5V497h-16.19V393.521c0-17.381-14.141-31.521-31.521-31.521H196.831c-17.381 0-31.521 14.141-31.521 31.521V497h-20.478v-12.5c0-11.561-8.766-21.11-20-22.358v-90.451c11.234-1.248 20-10.797 20-22.358v-12.5h222.334v12.5c0 11.561 8.766 21.11 20 22.358v90.451c-11.233 1.248-19.999 10.797-19.999 22.358zM265.644 377h53.812c9.11 0 16.521 7.411 16.521 16.521V497h-70.333zm-15 120h-70.333V393.521c0-9.11 7.411-16.521 16.521-16.521h53.813v120zM64.833 336.833h65v12.5c0 4.136-3.364 7.5-7.5 7.5h-50c-4.136 0-7.5-3.364-7.5-7.5zm20 35h25V462h-25zm317.334 0h25V462h-25zm37.5-15h-50c-4.136 0-7.5-3.364-7.5-7.5v-12.5h65v12.5c0 4.136-3.364 7.5-7.5 7.5zM38.009 487.046V336.833h11.824v12.5c0 11.561 8.766 21.11 20 22.358v90.451c-11.234 1.248-20 10.797-20 22.358V497h-1.87c-5.488 0-9.954-4.466-9.954-9.954zM64.833 497v-12.5c0-4.136 3.364-7.5 7.5-7.5h50c4.136 0 7.5 3.364 7.5 7.5V497zm317.334 0v-12.5c0-4.136 3.364-7.5 7.5-7.5h50c4.136 0 7.5 3.364 7.5 7.5V497zm82.37 0h-2.37v-12.5c0-11.561-8.766-21.11-20-22.358v-90.451c11.234-1.248 20-10.797 20-22.358v-12.5h12.324v150.213c0 5.488-4.466 9.954-9.954 9.954z"/></svg>