<svg xmlns="http://www.w3.org/2000/svg" ><g clip-rule="evenodd" fill-rule="evenodd"><path d="M336.816 70.669C384.24 70.669 454.03 153.64 454.03 256c0 102.359-69.79 185.359-117.214 185.359-47.425 0-117.213-83-117.213-185.359.001-102.36 69.789-185.331 117.213-185.331z" fill="#ffa471"/><path d="M376.303 86.089C415.536 114.663 454.03 180.002 454.03 256c0 102.359-69.79 185.359-117.214 185.359-18.822 0-41.159-13.097-61.257-35.235 11.707 7.088 23.302 10.971 33.817 10.971 48.699 0 120.389-82.999 120.389-185.359.001-59.076-23.895-111.715-53.462-145.647z" fill="#f2956a"/><path d="M405.586 114.72H268.048c-7.966 9.978-15.421 21.402-21.969 33.987h181.476c-6.548-12.585-14.003-24.01-21.969-33.987zm0 282.957H268.048c-7.966-9.978-15.421-21.401-21.969-33.987h181.476c-6.548 12.585-14.003 24.009-21.969 33.987z" fill="#ff6471"/><path d="M405.586 397.677c7.966-9.978 15.421-21.401 21.969-33.987H387.19c-9.922 13.691-20.836 25.2-31.919 33.987h50.004z" fill="#ff4056"/><path d="M401.362 271.478h95.388c4.252 0 7.767 3.486 7.767 7.767v154.349c0 4.279-3.515 7.767-7.767 7.767h-95.388c-4.28 0-7.767-3.487-7.767-7.767v-154.35c.001-4.28 3.487-7.766 7.767-7.766z" fill="#fff0ad"/><path d="M143.889 441.359c75.119 0 136.376-61.258 136.376-136.376 0-75.119-61.257-136.405-136.376-136.405S7.512 229.864 7.512 304.983 68.77 441.359 143.889 441.359z" fill="#f2956a"/><path d="M227.427 197.151c32.144 24.975 52.838 63.979 52.838 107.832 0 75.316-61.058 136.376-136.376 136.376-43.853 0-82.857-20.692-107.804-52.838 23.075 17.887 52.045 28.573 83.538 28.573C194.94 417.095 256 356.035 256 280.69c0-31.464-10.658-60.435-28.573-83.539z" fill="#e4835b"/><path d="M304.785 427.47c0 7.625-6.266 13.89-13.891 13.89H211.41c-7.653 0-13.89-6.265-13.89-13.89v-79.484c0-7.653 6.236-13.89 13.89-13.89h79.484c7.625 0 13.891 6.236 13.891 13.89z" fill="#b3dafe"/><path d="M304.785 427.47c0 7.625-6.266 13.89-13.891 13.89H211.41c-7.653 0-13.89-6.265-13.89-13.89v-10.375h68.43c8.022 0 14.569-6.548 14.569-14.57v-68.429h10.375c7.625 0 13.891 6.236 13.891 13.89z" fill="#8ac9fe"/><path d="M480.252 271.478h16.498c4.252 0 7.767 3.486 7.767 7.767v154.349c0 4.279-3.515 7.767-7.767 7.767h-95.388c-4.28 0-7.767-3.487-7.767-7.767v-16.498h72.085c7.995 0 14.571-6.548 14.571-14.57V271.478z" fill="#ffe177"/><path d="M397.054 114.72a228.21 228.21 0 0 1 16.753 33.987h13.748c-6.548-12.585-14.003-24.01-21.969-33.987z" fill="#ff4056"/></g><path d="M194.006 439.856c-6.747 2.523-13.777 4.536-21.062 6.038a145.528 145.528 0 0 1-29.055 2.948c-38.297 0-74.665-15.052-101.737-42.123C16.102 380.668 0 344.697 0 304.983c0-24.605 6.236-48.644 18.227-70.102a144.73 144.73 0 0 1 50.345-52.527c3.515-2.154 8.136-1.049 10.318 2.466 2.154 3.516 1.049 8.136-2.467 10.318a127.133 127.133 0 0 0-19.87 15.053 169.731 169.731 0 0 0 37.785 17.15 166.24 166.24 0 0 0 42.039 7.342v-58.395c-4.025.227-7.994.651-11.906 1.247a130.177 130.177 0 0 0-18.907 4.309c-3.94 1.219-8.136-.992-9.354-4.933-1.19-3.969 1.021-8.135 4.961-9.354 6.888-2.126 13.918-3.77 21.062-4.847a144.047 144.047 0 0 1 21.657-1.616c28.233 0 55.616 8.164 79.201 23.726 9.155-29.338 24.18-57.912 44.447-81.213 22.11-25.37 47.538-40.45 69.279-40.45 19.56 0 42.066 12.189 62.448 33.08 21.118 21.656 37.105 49.153 47.452 77.302 1.417 3.884-.567 8.192-4.45 9.609-3.884 1.418-8.192-.566-9.609-4.45a227.933 227.933 0 0 0-9.666-22.507H250.643a227.119 227.119 0 0 0-14.769 38.125 146.02 146.02 0 0 1 9.779 8.93c32.457 32.458 47.311 78.011 40.479 123.338h4.763c5.896 0 11.227 2.409 15.109 6.293a21.272 21.272 0 0 1 6.265 15.108v8.22h73.815v-84.728c0-4.139 3.373-7.484 7.512-7.484h52.81c.396-10.232 0-20.749-1.049-30.897a230.582 230.582 0 0 0-3.6-22.819c-.85-4.054 1.729-8.022 5.782-8.845 4.054-.85 8.022 1.758 8.844 5.783a238.586 238.586 0 0 1 3.855 24.379c1.134 10.856 1.474 21.486 1.134 32.399h43.145a7.477 7.477 0 0 1 7.483 7.484v169.882a7.476 7.476 0 0 1-7.483 7.483H393.596c-4.139 0-7.512-3.345-7.512-7.483v-13.522c-5.841 4.763-11.765 8.759-17.661 11.962-10.857 5.896-21.6 9.043-31.607 9.043-10.232 0-20.324-3.26-29.367-7.852-4.081 4.96-10.12 7.852-16.555 7.852H211.41a21.218 21.218 0 0 1-15.108-6.265 20.599 20.599 0 0 1-2.296-2.721zm129.573-234.399c-4.139 0-7.483-3.373-7.483-7.512s3.345-7.483 7.483-7.483h5.726v-9.27c0-4.139 3.373-7.483 7.512-7.483s7.512 3.345 7.512 7.483v9.27h5.727c4.139 0 7.483 3.345 7.483 7.483s-3.345 7.512-7.483 7.512h-5.727v14.118h5.727c4.139 0 7.483 3.373 7.483 7.512s-3.345 7.482-7.483 7.482h-5.727v14.117h5.727c4.139 0 7.483 3.373 7.483 7.512s-3.345 7.512-7.483 7.512h-5.727v14.117h5.727a7.476 7.476 0 0 1 7.483 7.483c0 4.139-3.345 7.513-7.483 7.513h-5.727v14.117h5.727c4.139 0 7.483 3.373 7.483 7.512s-3.345 7.483-7.483 7.483h-5.727v9.27c0 4.139-3.373 7.483-7.512 7.483s-7.512-3.345-7.512-7.483v-9.27h-5.726a7.476 7.476 0 0 1-7.483-7.483c0-4.139 3.345-7.512 7.483-7.512h5.726v-14.117h-5.726c-4.139 0-7.483-3.374-7.483-7.513a7.476 7.476 0 0 1 7.483-7.483h5.726V263.71h-5.726c-4.139 0-7.483-3.373-7.483-7.512s3.345-7.512 7.483-7.512h5.726v-14.117h-5.726c-4.139 0-7.483-3.344-7.483-7.482s3.345-7.512 7.483-7.512h5.726v-14.118zM312.24 390.165h73.844v-18.964H312.24zm0 14.996v21.43c7.427 4.025 16.044 7.257 24.576 7.257 7.541 0 15.846-2.495 24.463-7.172 8.192-4.45 16.611-10.828 24.805-18.879v-2.636zm-14.939-57.176h-.028c0-1.758-.709-3.345-1.871-4.507s-2.75-1.899-4.507-1.899H211.41c-1.758 0-3.345.737-4.507 1.899-1.163 1.162-1.899 2.749-1.899 4.507v79.484c0 1.758.736 3.345 1.899 4.507a6.34 6.34 0 0 0 4.507 1.871h79.484a6.342 6.342 0 0 0 4.507-1.871c1.19-1.19 1.899-2.806 1.899-4.507l.001-79.484zm117.498-206.79c-4.054-6.774-8.362-13.125-12.841-18.964H271.704a197.77 197.77 0 0 0-12.869 18.964zm-25.71-33.96c-12.757-13.237-32.911-29.083-52.272-29.083-15.676 0-34.554 10.715-52.243 29.083zM243.641 385.262c0-4.14 3.374-7.484 7.513-7.484 4.138 0 7.512 3.345 7.512 7.484v4.903a7.507 7.507 0 0 1-7.512 7.512 7.507 7.507 0 0 1-7.513-7.512zm22.536 20.891c0-4.139 3.373-7.484 7.512-7.484s7.512 3.346 7.512 7.484v4.932c0 4.139-3.373 7.484-7.512 7.484s-7.512-3.346-7.512-7.484zm-45.072-41.784c0-4.139 3.373-7.512 7.512-7.512s7.483 3.373 7.483 7.512v4.904c0 4.139-3.345 7.512-7.483 7.512s-7.512-3.373-7.512-7.512zm45.072 0c0-4.139 3.373-7.512 7.512-7.512s7.512 3.373 7.512 7.512v4.904c0 4.139-3.373 7.512-7.512 7.512s-7.512-3.373-7.512-7.512zm-45.072 41.784c0-4.139 3.373-7.484 7.512-7.484s7.483 3.346 7.483 7.484v4.932c0 4.139-3.345 7.484-7.483 7.484s-7.512-3.346-7.512-7.484zm49.862-79.569a124.244 124.244 0 0 0 1.588-14.117H151.4v47.764c6.974.312 13.918.992 20.807 2.098 6.037.936 11.99 2.184 17.802 3.714v-18.057a21.24 21.24 0 0 1 6.293-15.108 21.242 21.242 0 0 1 15.108-6.293h59.557zm-80.958 54.963a165.069 165.069 0 0 0-20.098-4.45 156.972 156.972 0 0 0-18.511-1.843v58.396c6.35-.369 12.558-1.162 18.567-2.41a128.141 128.141 0 0 0 20.041-5.895v-43.798zM45.923 221.19a131.327 131.327 0 0 0-14.628 20.948c-9.241 16.526-14.939 35.291-16.072 55.332h121.154v-47.764a179.963 179.963 0 0 1-46.518-8.079c-15.561-4.846-30.301-11.763-43.936-20.437zm-30.7 91.277c1.672 29.055 12.954 55.502 30.728 76.281 13.606-8.675 28.347-15.592 43.908-20.438a179.955 179.955 0 0 1 46.518-8.079v-47.764zm41.33 87.28c21.26 19.587 49.096 32.116 79.824 33.902v-58.396a166.24 166.24 0 0 0-42.039 7.342 169.873 169.873 0 0 0-37.785 17.152zM151.4 176.289v58.395a166.631 166.631 0 0 0 42.066-7.342 170.113 170.113 0 0 0 37.759-17.15c-21.289-19.617-49.154-32.118-79.825-33.903zm90.455 44.901c-13.635 8.674-28.375 15.591-43.938 20.438a179.955 179.955 0 0 1-46.517 8.079v47.764h121.154c-1.672-29.083-12.953-55.531-30.699-76.281zm255.149 76.763v-18.964h-95.925v18.964h30.982c4.139 0 7.512 3.374 7.512 7.512 0 4.139-3.373 7.484-7.512 7.484h-30.982v18.992h95.925v-18.992H466.05c-4.168 0-7.513-3.346-7.513-7.484s3.345-7.512 7.513-7.512zM432.061 365.9c4.139 0 7.512 3.373 7.512 7.512s-3.373 7.483-7.512 7.483h-30.982v18.993h95.925v-18.993H466.05c-4.168 0-7.513-3.345-7.513-7.483s3.345-7.512 7.513-7.512h30.954v-18.964h-95.925V365.9zm64.943 48.984h-95.925v18.964h95.925z"/></svg>