<svg xmlns="http://www.w3.org/2000/svg" viewBox="0 0 512 512" style="enable-background:new 0 0 512 512" xml:space="preserve"><circle style="fill:#fe5022" cx="256" cy="256" r="247.916"/><path style="fill:#ff3501" d="M256 8.084c-10.96 0-21.752.72-32.337 2.099C345.304 26.029 439.242 130.04 439.242 256s-93.939 229.971-215.579 245.817A250.202 250.202 0 0 0 256 503.916c136.921 0 247.916-110.996 247.916-247.916S392.921 8.084 256 8.084z"/><path style="fill:#ece5dd" d="M320.674 127.192c-18.128 0-32.876-14.748-32.876-32.876s14.748-32.876 32.876-32.876 32.876 14.748 32.876 32.876-14.748 32.876-32.876 32.876zM256 450.56c-93.016 0-168.691-63.102-168.691-140.665S162.984 169.229 256 169.229s168.691 63.102 168.691 140.665S349.016 450.56 256 450.56z"/><path style="fill:#ece5dd" d="M419.113 277.767c-7.617-26.778-24.529-50.946-48.903-69.89l-7.931-6.164 7.295-6.906c10.079-9.544 23.337-14.798 37.331-14.798 30.015 0 54.434 24.419 54.434 54.434 0 20.386-11.799 39.49-30.058 48.669l-9.314 4.683-2.854-10.028zM80.718 283.111c-18.258-9.18-30.057-28.284-30.057-48.669 0-30.015 24.419-54.434 54.434-54.434 13.996 0 27.256 5.255 37.333 14.797l7.294 6.906-7.931 6.163c-24.376 18.944-41.287 43.113-48.904 69.891l-2.853 10.028-9.316-4.682z"/><path style="fill:#fe5022" d="M180.547 310.434c-18.128 0-32.876-14.748-32.876-32.876s14.748-32.876 32.876-32.876 32.876 14.748 32.876 32.876-14.748 32.876-32.876 32.876zM331.453 310.434c-18.128 0-32.876-14.748-32.876-32.876s14.748-32.876 32.876-32.876 32.876 14.748 32.876 32.876-14.748 32.876-32.876 32.876zM340.053 367.161c-21.997 18.331-51.848 28.426-84.053 28.426s-62.057-10.096-84.053-28.426a8.084 8.084 0 1 0-10.351 12.421c24.897 20.748 58.423 32.174 94.404 32.174s69.507-11.426 94.404-32.173a8.085 8.085 0 0 0-10.351-12.422z"/><path style="fill:#ece5dd" d="M264.084 180.547v-69.626l17.626-5.876c4.714 17.095 20.391 29.691 38.964 29.691 22.289 0 40.421-18.132 40.421-40.421s-18.132-40.421-40.421-40.421c-20.258 0-37.08 14.981-39.977 34.446l-27.253 9.084a8.084 8.084 0 0 0-5.527 7.669v75.453h16.167zm56.59-110.484c13.373 0 24.253 10.879 24.253 24.253s-10.879 24.253-24.253 24.253c-13.373 0-24.253-10.879-24.253-24.253s10.879-24.253 24.253-24.253z"/><path d="M437.019 74.981C388.667 26.628 324.379 0 256 0S123.333 26.628 74.981 74.981 0 187.62 0 256s26.628 132.667 74.981 181.019S187.62 512 256 512s132.667-26.628 181.019-74.981S512 324.379 512 256s-26.628-132.667-74.981-181.019zM256 495.832C123.756 495.832 16.168 388.244 16.168 256S123.756 16.168 256 16.168 495.832 123.756 495.832 256 388.244 495.832 256 495.832z"/><path d="M340.053 367.161c-21.997 18.331-51.848 28.426-84.053 28.426s-62.057-10.096-84.053-28.426a8.084 8.084 0 1 0-10.351 12.421c24.897 20.748 58.423 32.174 94.404 32.174s69.507-11.426 94.404-32.173a8.085 8.085 0 0 0-10.351-12.422z"/><path d="M468.884 234.442c0-34.176-27.803-61.979-61.979-61.979-16.932 0-33.183 7.059-44.801 19.173-27.526-17.51-61.328-28.389-98.021-29.79v-50.925l17.626-5.876c5.038 18.272 22.602 31.404 42.84 29.508 19.499-1.826 35.068-17.794 36.443-37.331 1.66-23.596-17.068-43.328-40.319-43.328-20.258 0-37.08 14.981-39.977 34.446l-27.253 9.084a8.084 8.084 0 0 0-5.527 7.669v56.751c-36.694 1.4-70.495 12.279-98.023 29.791-11.616-12.114-27.86-19.174-44.798-19.174-34.176 0-61.979 27.803-61.979 61.979 0 25.056 15.304 47.605 37.991 57.155a125.654 125.654 0 0 0-1.343 18.297c0 81.724 79.059 148.211 176.236 148.211 49.571 0 94.424-17.305 126.476-45.103 3.495-3.03 3.675-8.396.404-11.666l-.101-.101a7.961 7.961 0 0 0-10.846-.391c-29.18 25.299-70.361 41.094-115.933 41.094-88.261 0-160.067-59.234-160.067-132.042S167.739 177.853 256 177.853s160.067 59.234 160.067 132.042c0 22.907-7.109 44.47-19.602 63.268-2.085 3.137-1.617 7.319 1.047 9.982l.115.115c3.58 3.58 9.516 2.942 12.317-1.274 14.194-21.352 22.291-45.941 22.291-72.092 0-6.195-.461-12.3-1.343-18.297 22.688-9.549 37.992-32.098 37.992-57.155zM320.674 70.063c13.373 0 24.253 10.879 24.253 24.253s-10.879 24.253-24.253 24.253c-13.373 0-24.253-10.879-24.253-24.253s10.879-24.253 24.253-24.253zM84.592 275.408c-15.228-7.656-25.308-23.483-25.308-40.965 0-25.26 20.55-45.811 45.811-45.811 11.895 0 22.975 4.455 31.404 12.436-25.234 19.61-43.655 45.33-51.907 74.34zm342.816 0c-8.252-29.008-26.671-54.728-51.905-74.339 8.43-7.981 19.513-12.437 31.402-12.437 25.26 0 45.811 20.55 45.811 45.811 0 17.481-10.08 33.308-25.308 40.965z"/><path d="M220.968 277.558c0-22.289-18.132-40.421-40.421-40.421s-40.421 18.132-40.421 40.421c0 22.289 18.132 40.421 40.421 40.421s40.421-18.132 40.421-40.421zm-64.673 0c0-13.373 10.879-24.253 24.253-24.253 13.373 0 24.253 10.879 24.253 24.253 0 13.373-10.879 24.253-24.253 24.253s-24.253-10.88-24.253-24.253zM331.453 237.137c-22.289 0-40.421 18.132-40.421 40.421 0 22.289 18.132 40.421 40.421 40.421 22.289 0 40.421-18.132 40.421-40.421 0-22.289-18.133-40.421-40.421-40.421zm0 64.674c-13.373 0-24.253-10.879-24.253-24.253 0-13.373 10.879-24.253 24.253-24.253 13.373 0 24.253 10.879 24.253 24.253-.001 13.373-10.88 24.253-24.253 24.253z"/></svg>