<svg height="512" width="512" xmlns="http://www.w3.org/2000/svg"><path d="M328.2 447.99H183.8l10-57.79h124.4z" fill="#aac2cc"/><path d="M328.2 447.99h-29.32l-10-57.79h29.32z" fill="#86a0a8"/><path d="M348.203 447.991H163.798c-8.284 0-15 6.716-15 15s6.716 15 15 15h184.406c8.284 0 15-6.716 15-15s-6.716-15-15.001-15z" fill="#c2e8ef"/><path d="M363.203 462.991c0 8.28-6.72 15-15 15h-30c8.28 0 15-6.72 15-15 0-8.29-6.72-15-15-15h30c8.28 0 15 6.711 15 15z" fill="#9dcfd6"/><path d="M504.5 57.72v308.76c0 13.1-10.62 23.72-23.71 23.72H31.21c-12.17 0-22.21-9.18-23.55-21a22.2 22.2 0 0 1-.16-2.72V57.72c0-13.09 10.62-23.71 23.71-23.71h449.58c13.09 0 23.71 10.62 23.71 23.71z" fill="#e1f9ff"/><path d="M504.5 57.72v308.76c0 13.1-10.62 23.72-23.71 23.72H31.21c-12.17 0-22.21-9.18-23.55-21h448.12c13.1 0 23.72-10.62 23.72-23.72V57.72c0-13.09-10.62-23.71-23.71-23.71h25c13.09 0 23.71 10.62 23.71 23.71z" fill="#c2e8ef"/><path d="M504.5 350.2v16.28c0 13.1-10.62 23.72-23.71 23.72H31.21c-12.17 0-22.21-9.18-23.55-21a22.2 22.2 0 0 1-.16-2.72V350.2z" fill="#4a555b"/><path d="M504.5 350.2v16.28c0 13.1-10.62 23.72-23.71 23.72H31.21c-12.17 0-22.21-9.18-23.55-21h448.12c11.48 0 21.06-8.16 23.25-19z" fill="#2d383d"/><g fill-rule="nonzero" fill="none"><path d="M445.608 260.477 253.21 295.2c-2.36.435-4.054 2.309-4.05 4.482v24.945h202.524v-59.667c.002-1.373-.68-2.674-1.858-3.543-1.178-.869-2.727-1.213-4.218-.939z" fill="#ffdc00"/><path d="m445.608 260.477-10.202 1.828a4.16 4.16 0 0 1 1.089 2.654v59.667h15.19v-59.667c.001-1.373-.681-2.674-1.86-3.543-1.177-.869-2.726-1.213-4.217-.939z" fill="#fec108"/><path d="M259.285 294.107v-40.204c.013-2.127 1.65-3.964 3.95-4.432L435.38 210.52c1.501-.306 3.075.021 4.277.89 1.201.867 1.9 2.18 1.9 3.569v46.235z" fill="#ff9801"/><path d="m435.38 210.519-9.71 2.197c.45.686.69 1.466.699 2.262v46.235l-167.084 30.153v2.741l182.273-32.894v-46.235c0-1.389-.699-2.702-1.9-3.57-1.202-.867-2.776-1.195-4.277-.89z" fill="#f57c00"/><path d="M269.412 248.055v-39.839c.006-2.144 1.674-3.991 4-4.431l151.893-34.357c1.491-.305 3.055.02 4.248.883 1.192.863 1.884 2.17 1.879 3.549v37.554z" fill="#ffdc00"/><path d="m425.305 169.428-9.731 2.202c.434.679.664 1.447.668 2.23v37.554l-146.83 33.205v3.436l162.02-36.64V173.86c.005-1.38-.687-2.686-1.88-3.549-1.192-.862-2.756-1.188-4.247-.883z" fill="#fec108"/><path d="M279.538 202.414v-42.397c.002-2.1 1.59-3.928 3.848-4.432 10.329-2.48 128.603-31.117 131.641-31.843 1.51-.337 3.11-.029 4.335.836 1.226.866 1.942 2.191 1.943 3.595v42.17z" fill="#ff9801"/><path d="M415.027 123.742c-.506.119-3.99.96-9.508 2.284.394.66.6 1.398.597 2.147v42.17l-126.578 28.645v3.435l141.767-32.072v-42.178c0-1.404-.717-2.73-1.943-3.595-1.226-.865-2.824-1.173-4.335-.836z" fill="#f57c00"/><path d="M289.664 154.078v-37.326c.002-2.1 1.59-3.928 3.848-4.432 8.466-2.284 104.949-28.015 111.389-29.696 1.51-.337 3.109-.029 4.335.836 1.225.866 1.942 2.191 1.943 3.595v37.6z" fill="#ffdc00"/><path d="M404.9 82.624c-1.012.27-4.434 1.17-9.396 2.494.317.606.483 1.267.486 1.937v37.6L289.664 150.4v3.678l121.515-29.423v-37.6c-.001-1.404-.718-2.73-1.943-3.595-1.226-.865-2.824-1.173-4.335-.836z" fill="#fec108"/><path d="M299.79 110.63V84.77c.002-2.1 1.59-3.928 3.848-4.432l91.137-20.559c1.51-.337 3.109-.028 4.334.837 1.226.865 1.943 2.19 1.944 3.595V83.63z" fill="#ff9801"/><path d="m394.775 59.78-9.62 2.166a4.19 4.19 0 0 1 .709 2.266V83.63l-86.074 22.948v4.053l101.263-27.001V64.212c-.001-1.404-.718-2.73-1.944-3.595-1.225-.865-2.824-1.174-4.334-.837z" fill="#f57c00"/><g fill="#d84315"><path d="M279.538 290.452v-20.65c.017-5.04 4.54-9.122 10.126-9.138 5.576.038 10.085 4.107 10.126 9.138v16.995M299.79 241.202v-17.087c.017-5.04 4.541-9.122 10.127-9.137 5.575.037 10.085 4.106 10.126 9.137v12.518M340.295 232.019v-17.041c.017-5.04 4.541-9.122 10.127-9.137 5.575.037 10.085 4.106 10.126 9.137v12.472M380.8 222.836v-16.995c.017-5.04 4.541-9.123 10.127-9.138 5.575.038 10.085 4.107 10.126 9.138v12.426M320.043 283.142v-22.478c.017-5.04 4.54-9.122 10.126-9.137 5.576.038 10.085 4.107 10.126 9.137v18.823M360.548 275.832v-24.305c.017-5.04 4.54-9.122 10.126-9.137 5.576.037 10.085 4.106 10.126 9.137v20.65M401.053 268.523V242.39c.017-5.04 4.54-9.122 10.126-9.137 5.576.037 10.085 4.106 10.126 9.137v22.478"/></g><path d="M402.207 56.994c-2.447-1.731-5.645-2.339-8.658-1.645l-91.136 20.559c-4.52 1.002-7.694 4.663-7.686 8.863v22.455l-2.425.658c-4.528.997-7.71 4.662-7.701 8.868v33.808l-2.42.585c-4.532.996-7.717 4.663-7.706 8.872v38.834l-2.142.484c-4.658.879-7.992 4.587-7.984 8.881v36.294l-2.213.502c-4.608.943-7.887 4.628-7.914 8.89v36.459l-1.99.36c-4.731.856-8.136 4.606-8.136 8.96v20.376h-15.19c-2.796 0-5.062 2.046-5.062 4.569s2.266 4.568 5.063 4.568h243.03c2.796 0 5.063-2.045 5.063-4.568 0-2.523-2.267-4.569-5.063-4.569h-15.19v-55.103c.004-2.422-1.062-4.746-2.963-6.457-1.9-1.71-4.478-2.667-7.163-2.657v-40.862c0-5.047-4.534-9.137-10.126-9.137V173.86c.008-2.422-1.058-4.747-2.96-6.456-1.902-1.71-4.482-2.662-7.166-2.645v-36.586c.012-2.426-1.051-4.757-2.953-6.473-1.902-1.716-4.484-2.675-7.174-2.664v-31.98c.013-2.424-1.051-4.752-2.954-6.463-1.903-1.71-4.486-2.663-7.172-2.643V64.212c.01-2.823-1.434-5.49-3.909-7.218zm-6.217 7.218v16.022l-91.136 24.283V84.77zm-101.035 52.485L402.46 88.015l3.656-.96v34.11l-10.126 2.44V105.33c0-2.523-2.267-4.569-5.063-4.569-2.797 0-5.063 2.046-5.063 4.569v20.737l-10.127 2.449v-18.617c0-2.524-2.267-4.569-5.063-4.569s-5.063 2.045-5.063 4.569v21.066l-10.126 2.449v-18.947c0-2.523-2.267-4.568-5.063-4.568-2.797 0-5.063 2.045-5.063 4.568v21.395l-10.127 2.454v-19.28c0-2.523-2.267-4.569-5.063-4.569s-5.063 2.046-5.063 4.569v21.729l-10.126 2.448v-19.608c0-2.524-2.267-4.569-5.063-4.569-2.797 0-5.063 2.045-5.063 4.569v22.057l-10.091 2.44zm-10.268 43.302 131.555-31.826v38.596l-10.126 2.285v-22.606c0-2.523-2.267-4.569-5.063-4.569s-5.063 2.046-5.063 4.569v24.9l-15.19 3.426v-23.757c0-2.524-2.266-4.569-5.063-4.569-2.796 0-5.063 2.045-5.063 4.569v26.041l-15.19 3.436v-20.34c0-2.523-2.266-4.569-5.062-4.569-2.797 0-5.063 2.046-5.063 4.569V182.8l-15.19 3.435v-21.513c0-2.524-2.267-4.57-5.063-4.57s-5.063 2.046-5.063 4.57v23.807l-15.19 3.436V169.29c0-2.523-2.266-4.568-5.063-4.568-2.796 0-5.063 2.045-5.063 4.568v24.963l-10.126 2.285zm-10.06 48.222 147.924-33.447 3.818-.914v33.99l-20.253 4.57v-6.58c-.041-7.553-6.818-13.668-15.19-13.705-8.388 0-15.189 6.136-15.189 13.706v13.463l-10.126 2.285v-6.611c-.041-7.554-6.818-13.669-15.19-13.706-8.388 0-15.189 6.136-15.189 13.706v13.491l-10.126 2.284v-6.638c-.041-7.554-6.818-13.668-15.19-13.706-8.388 0-15.189 6.137-15.189 13.706v13.523l-20.252 4.57zm121.363 6.501-10.126 2.284-.152-11.165c0-2.524 2.267-4.57 5.063-4.57 1.365-.002 2.672.504 3.61 1.399.939.836 1.463 1.98 1.453 3.17zm-40.505 9.165-10.126 2.284-.152-11.193c0-2.523 2.266-4.569 5.063-4.569 1.365-.003 2.672.503 3.61 1.398.939.837 1.463 1.98 1.453 3.17zm-40.505 9.17-10.126 2.283-.152-11.225c0-2.523 2.266-4.568 5.063-4.568 1.365-.004 2.672.502 3.61 1.398 1.09.836 1.615 1.98 1.605 3.17zm-50.515 20.846 172.03-38.925v42.488l-10.126 1.828V242.39c-.042-7.554-6.818-13.669-15.19-13.706-8.389 0-15.19 6.136-15.19 13.706v22.386l-10.125 1.828v-15.077c-.042-7.554-6.818-13.668-15.19-13.706-8.389 0-15.19 6.137-15.19 13.706v20.56l-10.125 1.827v-13.25c-.042-7.554-6.818-13.668-15.19-13.705-8.389 0-15.19 6.136-15.19 13.705v18.732l-10.125 1.827v-11.421c-.042-7.554-6.818-13.669-15.19-13.706-8.389 0-15.19 6.136-15.19 13.706v16.904l-10.125 1.827zm151.777 7.218-10.126 1.828v-20.56c0-2.522 2.267-4.568 5.063-4.568 1.366-.003 2.672.503 3.61 1.398.94.837 1.463 1.98 1.453 3.17zm-40.505 7.31-10.126 1.828v-18.732c0-2.523 2.267-4.568 5.063-4.568 1.366-.004 2.672.502 3.61 1.398.94.836 1.463 1.98 1.453 3.17zm-40.505 7.31-10.126 1.828v-16.905c0-2.523 2.267-4.568 5.063-4.568 1.366-.003 2.672.503 3.61 1.398.94.836 1.463 1.98 1.453 3.17zm-40.505 7.31-10.126 1.827v-15.076c0-2.523 2.267-4.569 5.063-4.569 1.366-.003 2.672.503 3.61 1.398.94.837 1.463 1.98 1.453 3.17zm-40.505 37.006v-20.376l192.4-34.722v55.098z" fill="#000"/></g><g><path d="M480.787 26.509h-96.481a7.5 7.5 0 0 0 0 15h96.481c8.94 0 16.213 7.273 16.213 16.213v284.974H15V57.722c0-8.94 7.273-16.213 16.213-16.213h318.092a7.5 7.5 0 0 0 0-15H31.213C14.002 26.509 0 40.511 0 57.722v308.761c0 17.211 14.002 31.213 31.213 31.213h71.801a7.5 7.5 0 0 0 0-15H31.213c-8.94 0-16.213-7.273-16.213-16.213v-8.787h482v8.787c0 8.94-7.273 16.213-16.213 16.213H137.684a7.5 7.5 0 0 0 0 15h47.204l-7.405 42.795h-13.686c-12.407 0-22.5 10.093-22.5 22.5s10.093 22.5 22.5 22.5h184.406c12.407 0 22.5-10.093 22.5-22.5s-10.093-22.5-22.5-22.5h-13.686l-7.405-42.795h153.674c17.211 0 31.213-14.002 31.213-31.213V57.722c.001-17.211-14.001-31.213-31.212-31.213zM319.294 440.491h-20.418a7.5 7.5 0 0 0 0 15h49.327c4.136 0 7.5 3.364 7.5 7.5s-3.364 7.5-7.5 7.5H163.797c-4.136 0-7.5-3.364-7.5-7.5s3.364-7.5 7.5-7.5h100.067a7.5 7.5 0 0 0 0-15h-71.158l7.405-42.795H311.89z"/><path d="M221.898 165.152h-170a7.5 7.5 0 0 0 0 15h170a7.5 7.5 0 0 0 0-15zM51.898 219.993H82.32a7.5 7.5 0 0 0 0-15H51.898a7.5 7.5 0 0 0 0 15zM221.898 204.993H116.685a7.5 7.5 0 0 0 0 15h105.213a7.5 7.5 0 0 0 0-15zM221.898 80.31h-170a7.5 7.5 0 0 0 0 15h170a7.5 7.5 0 0 0 0-15zM51.898 135.152H157.32a7.5 7.5 0 0 0 0-15H51.898a7.5 7.5 0 0 0 0 15zM221.898 120.152h-30.213a7.5 7.5 0 0 0 0 15h30.213a7.5 7.5 0 0 0 0-15zM229.398 251.851a7.5 7.5 0 0 0-7.5-7.5h-170a7.5 7.5 0 0 0 0 15h170a7.5 7.5 0 0 0 7.5-7.5zM51.898 283.981a7.5 7.5 0 0 0 0 15h80a7.5 7.5 0 0 0 0-15z"/></g></svg>