<svg  xmlns="http://www.w3.org/2000/svg"><path d="M328.004 416.008v80a8 8 0 0 0 8 8h128a8 8 0 0 0 8-8v-32h32v-88l-32-32h-32l-8 32-23.84-5.922 7.84 85.922-16 16-16-16 7.84-85.922-23.84 5.922-8-32h-24l-24-24-29.441-112h-42.239l.88 4 23.28 112 7.52 36zm0 0" fill="#bcbbbe"/><path d="M472.004 464.008v32a8 8 0 0 1-8 8h8c17.672 0 32-14.328 32-32v-8zm0 0" fill="#ffdaaa"/><path d="M472.004 384.008h16v80h-16zm0 0" fill="#79787d"/><path d="M491.605 464.008a31.9 31.9 0 0 1-19.601 25.597v6.403a8 8 0 0 1-8 8h8c17.672 0 32-14.328 32-32v-8zm0 0" fill="#ffb680"/><path d="M328.004 416.008v-40l-40-40-32-128h-16l32 152zm0 0" fill="#79787d"/><path d="M368.004 344.008v88l32 40 32-40v-88zm0 0" fill="#fefcff"/><path d="M368.004 408.008v24l32 40 32-40v-24l-32 40zm0 0" fill="#79787d"/><path d="m232.004 168.008 8.32 40h42.238l-10.558-40zm0 0" fill="#ffdaaa"/><path d="m251.332 168.008 4.992 24h22.016l4.223 16h-42.239l-8.32-40zm0 0" fill="#ffb680"/><path d="m424.004 344.008-24 24 8.16 2.078 23.84 5.922 8-32zM400.004 368.008l-24-24h-16l8 32 23.84-5.922zM391.844 370.086l-7.84 85.922 16 16 16-16-7.84-85.922-8.16-2.078zm0 0" fill="#b1eeff"/><path d="m336.004 168.008 16 32-16 8 16 24h40l32-32 24 24 16-16v-16l-24-24zm0 0" fill="#b25e1e"/><path d="M448.004 240.008v40a43.047 43.047 0 0 1-.719 7.918l.719.082c13.254 0 24-10.746 24-24s-10.746-24-24-24zM328.004 264.008c0 13.254 10.746 24 24 24l.719-.082a42.71 42.71 0 0 1-.72-7.918v-40c-13.253 0-24 10.746-24 24zM376.004 321.527v22.48l24 24 24-24v-22.48a47.681 47.681 0 0 1-48 0zm0 0" fill="#ffb680"/><path d="M376.004 321.527a47.681 47.681 0 0 0 48 0 47.492 47.492 0 0 0 23.281-33.601c.485-2.61.723-5.262.719-7.918v-56l-24-24-32 32h-40v48a42.71 42.71 0 0 0 .719 7.918 46.886 46.886 0 0 0 13.359 26 46.119 46.119 0 0 0 9.922 7.601zm0 0" fill="#ffdaaa"/><path d="M336.004 168.008h104l20 20h-104l16 32-16 8 2.664 4h-6.664l-16-24 16-8zm0 0" fill="#c46322"/><path d="M400.004 328.008c8.437.039 16.73-2.2 24-6.48v16a47.681 47.681 0 0 1-48 0v-16a46.868 46.868 0 0 0 24 6.48zM392.004 232.008l32-32 24 24v24l-24-24-32 32h-40v-24zm0 0" fill="#eb975d"/><path d="m391.844 370.086 8.16-2.078v104l-16-16zm0 0" fill="#96e8ff"/><path d="m160.004 72.008-16 24 8 32-32-16-32 16 8-32-16-24h24l16-24 16 24zM432.004 72.008l-16 24 8 32-32-16-32 16 8-32-16-24h24l16-24 16 24zM320.004 48.008l-40 24 24 48-48-32-48 32 24-48-40-24h48l16-40 16 40zm0 0" fill="#b1eeff"/><path d="m280.004 168.008-8.32 40h-42.239l10.559-40zm0 0" fill="#ffdaaa"/><path d="m260.676 168.008-4.992 24h-22.016l-4.223 16h42.239l8.32-40zm0 0" fill="#ffb680"/><path d="M184.004 416.008v80a8 8 0 0 1-8 8h-128a8 8 0 0 1-8-8v-32h-32v-88l32-32h32l8 32 23.84-5.922-7.84 85.922 16 16 16-16-7.84-85.922 23.84 5.922 8-32h24l24-24 29.441-112h42.239l-.88 4-23.28 112-7.52 36zm0 0" fill="#fefcff"/><path d="m88.004 344.008 24 24-8.16 2.078-23.84 5.922-8-32zM112.004 368.008l24-24h16l-8 32-23.84-5.922zM120.164 370.086l7.84 85.922-16 16-16-16 7.84-85.922 8.16-2.078zm0 0" fill="#b1eeff"/><path d="m176.004 168.008-16 32 16 8-16 24h-40l-32-32-24 24-16-16v-16l24-24zm0 0" fill="#626169"/><path d="M64.004 240.008v40a42.71 42.71 0 0 0 .719 7.918l-.72.082c-13.253 0-24-10.746-24-24s10.747-24 24-24zM184.004 264.008c0 13.254-10.746 24-24 24l-.719-.082c.485-2.61.723-5.262.719-7.918v-40c13.254 0 24 10.746 24 24zM136.004 321.527v22.48l-24 24-24-24v-22.48a47.681 47.681 0 0 0 48 0zm0 0" fill="#ffb680"/><path d="M136.004 321.527a47.681 47.681 0 0 1-48 0 47.492 47.492 0 0 1-23.281-33.601 42.71 42.71 0 0 1-.72-7.918v-56l24-24 32 32h40v48a43.047 43.047 0 0 1-.718 7.918 46.867 46.867 0 0 1-13.363 26 46 46 0 0 1-9.918 7.601zm0 0" fill="#ffdaaa"/><path d="M176.004 168.008h-104l-20 20h104l-16 32 16 8-2.664 4h6.664l16-24-16-8zm0 0" fill="#79787d"/><path d="M112.004 328.008c-8.438.039-16.73-2.2-24-6.48v16a47.681 47.681 0 0 0 48 0v-16a46.868 46.868 0 0 1-24 6.48zM120.004 232.008l-32-32-24 24v24l24-24 32 32h40v-24zm0 0" fill="#eb975d"/><path d="m120.164 370.086-8.16-2.078v104l16-16zm0 0" fill="#96e8ff"/><path d="M40.004 464.008v32a8 8 0 0 0 8 8h-8c-17.672 0-32-14.328-32-32v-8zm0 0" fill="#ffdaaa"/><path d="M24.004 384.008h16v80h-16zm0 0" fill="#dedddf"/><path d="M20.402 464.008a31.893 31.893 0 0 0 19.602 25.597v6.403a8 8 0 0 0 8 8h-8c-17.672 0-32-14.328-32-32v-8zm0 0" fill="#ffb680"/><path d="M184.004 416.008v-40l40-40 32-128h16l-32 152zm0 0" fill="#dedddf"/><g fill="#24131a"><path d="M286.203 162.96a7.985 7.985 0 0 0-6.2-2.952h-40a7.995 7.995 0 0 0-7.733 5.96l-39.465 149.91-20.114 20.13h-28.687v-10.2a53.791 53.791 0 0 0 21.687-30.402c14.645-2.59 25.551-14.968 26.274-29.824s-8.926-28.234-23.25-32.238l13.945-20.922a7.998 7.998 0 0 0-3.082-11.598l-8.84-4.418 12.465-24.824a8 8 0 0 0-7.2-11.574h-104a8.001 8.001 0 0 0-5.655 2.344l-24 24a8.001 8.001 0 0 0-2.344 5.656v16c0 2.12.844 4.156 2.344 5.656l13.656 13.656v5.825c-14.524 3.714-24.496 17.039-23.969 32.02.527 14.98 11.414 27.573 26.16 30.257a55.053 55.053 0 0 0 21.809 30.45v10.136h-40a8.001 8.001 0 0 0-5.656 2.344l-32 32a8.001 8.001 0 0 0-2.344 5.656v96c.027 22.078 17.918 39.972 40 40h136c8.836 0 16-7.164 16-16V419.32l53.656-53.656a8.01 8.01 0 0 0 2.176-4l40-192a7.993 7.993 0 0 0-1.633-6.703zm-40 13.048h24l-5 24h-25.351zM119.7 453l-7.695 7.695-7.695-7.695 6.992-76.57.703-.176.734.183zM84.691 352.008l11.672 11.672-10.535 2.64-3.586-14.312zm11.313-18.403a54.419 54.419 0 0 0 32 0v7.09l-16 16-16-16zm31.64 30.083 11.672-11.68h2.45l-3.586 14.312zm48.36-99.68a15.944 15.944 0 0 1-8 13.777V250.23a15.944 15.944 0 0 1 8 13.778zm-128 0a15.944 15.944 0 0 1 8-13.778v27.555a15.944 15.944 0 0 1-8-13.777zm8-59.313v-9.375l19.312-19.312h87.743l-10.215 20.422c-1.977 3.957-.371 8.765 3.582 10.738l7.898 3.945-8.601 12.895h-32.407L93.66 194.352a7.997 7.997 0 0 0-11.312 0l-18.344 18.343zm16.582 81.778a35.531 35.531 0 0 1-.582-6.465V227.32l16-16 26.344 26.344a8.001 8.001 0 0 0 5.656 2.344h32v40c0 2.234-.207 4.465-.617 6.664a38.718 38.718 0 0 1-11.117 21.598 38.043 38.043 0 0 1-8.336 6.402 39.738 39.738 0 0 1-39.954-.055 39.318 39.318 0 0 1-19.394-28.144zM16.004 472.008h16v22.527a24.003 24.003 0 0 1-16-22.527zm216.656-116-40.656 40.687v-12.687h-16v112h-128v-112h-16v72h-16V379.32l27.312-27.312h22.45l6.476 25.937a8.001 8.001 0 0 0 7.762 6.063 8.535 8.535 0 0 0 1.937-.235l12.903-3.199-6.84 74.707a8.007 8.007 0 0 0 2.312 6.399l16 16a8.004 8.004 0 0 0 11.313 0l16-16a8.007 8.007 0 0 0 2.312-6.399l-6.824-74.738 12.926 3.2c.64.163 1.3.253 1.96.265a7.996 7.996 0 0 0 7.75-6.063l6.49-25.937h17.76a8.001 8.001 0 0 0 5.657-2.344l24-24a8.02 8.02 0 0 0 2.078-3.625l27.907-106.031h26.19zM509.66 370.352l-32-32a8.001 8.001 0 0 0-5.656-2.344h-40v-10.145a55.015 55.015 0 0 0 21.824-30.449c14.75-2.68 25.64-15.277 26.164-30.258.524-14.984-9.46-28.308-23.988-32.011v-5.825l13.656-13.656a8.001 8.001 0 0 0 2.344-5.656v-16a8.001 8.001 0 0 0-2.344-5.656l-24-24a8.001 8.001 0 0 0-5.656-2.344h-104a7.998 7.998 0 0 0-7.2 11.574l12.423 24.848-8.84 4.418a7.984 7.984 0 0 0-4.157 5.105 7.992 7.992 0 0 0 1.079 6.496l13.941 20.918c-14.32 4.004-23.969 17.387-23.242 32.242.722 14.856 11.629 27.23 26.277 29.82a54.372 54.372 0 0 0 14.102 24.153 55.904 55.904 0 0 0 7.578 6.227v10.199h-28.649l-20-20-21.41-101.649-15.656 3.297 21.922 104a8.056 8.056 0 0 0 2.176 4l24 24a8.009 8.009 0 0 0 5.656 2.352h17.762l6.238 24.969v55.03c0 1.817.617 3.583 1.75 5l14.312 17.895v.395h.38l15.558 19.527v21.184h-56v-112h-16v12.687l-40.527-40.527-4.946-29.48-15.777 2.64 5.363 32a8.011 8.011 0 0 0 2.23 4.336l53.657 53.656v76.688c0 8.836 7.164 16 16 16h136c22.082-.028 39.973-17.922 40-40v-96a8.001 8.001 0 0 0-2.344-5.656zm-109.656 88.855-7.418-9.262 6.715-73.507.703-.184.734.184 6.68 73.496zm-16-125.602a54.419 54.419 0 0 0 32 0v7.09l-16 16-16-16zm33.144 46.946 6.856 1.71v46.946l-2.168 2.711zm9.032-14.223-10.535-2.64 11.671-11.68h2.45zm37.824-102.32a15.944 15.944 0 0 1-8 13.777V250.23a15.944 15.944 0 0 1 8 13.778zm-128 0a15.944 15.944 0 0 1 8-13.778v27.555a15.944 15.944 0 0 1-8-13.777zm11.68-52.895 7.894-3.945a8.002 8.002 0 0 0 3.586-10.738l-10.215-20.422h87.742l19.313 19.312v9.375l-8 8-18.344-18.343a7.997 7.997 0 0 0-11.312 0l-29.657 29.656h-32.406zm12.32 68.895v-40h32a8.001 8.001 0 0 0 5.656-2.344l26.344-26.344 16 16v52.688c0 2.23-.203 4.457-.617 6.648a39.28 39.28 0 0 1-19.453 28 39.704 39.704 0 0 1-40-.074 37.633 37.633 0 0 1-8.243-6.328 38.844 38.844 0 0 1-11.12-21.766 35.37 35.37 0 0 1-.567-6.48zm12.687 72 11.672 11.672-10.535 2.64-3.586-14.312zm3.313 77.191v-46.945l6.832-1.711-4.672 51.36zm32 66.809v-21.184l15.59-19.496h.379v-.394l14.312-17.895a8.018 8.018 0 0 0 1.719-5.031v-55.031l6.238-24.97h22.45l27.312 27.313v76.688h-16v-72h-16v112zm72-1.473v-22.527h16a24.003 24.003 0 0 1-16 22.527zM187.883 54.863l33.648 20.192-20.687 41.375a8.002 8.002 0 0 0 11.601 10.234l43.559-29.059 43.559 29.043a8.001 8.001 0 0 0 11.601-10.234l-20.687-41.36 33.648-20.19a8 8 0 0 0-4.121-14.856h-42.586l-13.98-34.969a8.002 8.002 0 0 0-14.867 0l-13.985 34.969h-42.582a8 8 0 0 0-4.121 14.855zm52.12 1.145a8.005 8.005 0 0 0 7.435-5.031l8.566-21.434 8.566 21.434a8.005 8.005 0 0 0 7.434 5.03h19.121l-15.242 9.145a7.997 7.997 0 0 0-3.04 10.399l10.536 21.054-22.934-15.285a8.007 8.007 0 0 0-8.882 0l-22.934 15.285 10.574-21.023a7.998 7.998 0 0 0-3.039-10.398l-15.281-9.176zM87.387 97.504l-7.145 28.566a8 8 0 0 0 11.336 9.137l28.426-14.254 28.422 14.254a8.001 8.001 0 0 0 11.34-9.094l-7.145-28.57 14.04-21.055a8.004 8.004 0 0 0 .429-8.246 7.992 7.992 0 0 0-7.086-4.234h-19.719l-13.601-20.442a8.312 8.312 0 0 0-13.313 0L99.723 64.008h-19.72a7.998 7.998 0 0 0-7.054 4.226 7.999 7.999 0 0 0 .399 8.215zm16.617-17.496a8.003 8.003 0 0 0 6.656-3.559l9.344-14.043 9.344 14.016a8 8 0 0 0 6.656 3.586h9.055l-7.711 11.558a8.01 8.01 0 0 0-1.106 6.403l3.785 15.125-16.449-8.223a8 8 0 0 0-7.152 0l-16.422 8.2 3.785-15.126a8.01 8.01 0 0 0-1.105-6.402l-7.735-11.535zM359.387 97.504l-7.145 28.566a8 8 0 0 0 11.336 9.137l28.426-14.254 28.422 14.254a8.001 8.001 0 0 0 11.34-9.094l-7.145-28.57 14.04-21.055a8.004 8.004 0 0 0 .429-8.246 7.992 7.992 0 0 0-7.086-4.234h-19.719l-13.601-20.442a8.312 8.312 0 0 0-13.313 0l-13.648 20.442h-19.72a7.998 7.998 0 0 0-7.054 4.226 7.999 7.999 0 0 0 .399 8.215zm16.617-17.496a8.003 8.003 0 0 0 6.656-3.559l9.344-14.043 9.344 14.016a8 8 0 0 0 6.656 3.586h9.055l-7.711 11.558a8.01 8.01 0 0 0-1.106 6.403l3.785 15.125-16.449-8.223a8 8 0 0 0-7.152 0l-16.422 8.2 3.785-15.126a8.01 8.01 0 0 0-1.105-6.402l-7.735-11.535zm0 0"/></g></svg>