<?xml version="1.0" encoding="UTF-8" standalone="no"?>
<svg
   version="1.1"
   id="svg62"
   width="512"
   height="512"
   xmlns="http://www.w3.org/2000/svg"
   xmlns:svg="http://www.w3.org/2000/svg">
  <defs
     id="defs66" />
  <circle
     cx="324.26666"
     cy="324.26666"
     fill="#fffa48"
     id="circle2"
     style="stroke-width:8.53336"
     r="179.2" />
  <path
     d="m 490.92265,390.05865 c -26.112,66.38934 -90.88,113.408 -166.656,113.408 -98.98666,0 -179.19999,-80.21333 -179.19999,-179.2 0,-69.71732 39.76533,-130.13332 97.87733,-159.65866 a 177.66399,177.66399 0 0 0 -12.544,65.792 c 0,98.98666 80.21334,179.2 179.2,179.2 29.26933,0 56.91733,-6.99734 81.32266,-19.54134 z"
     fill="#fcea42"
     id="path4"
     style="stroke-width:8.53336" />
  <circle
     cx="324.26666"
     cy="324.26666"
     fill="#fdc741"
     id="circle6"
     style="stroke-width:8.53336"
     r="145.06667" />
  <path
     d="m 409.59999,409.59999 c -98.9696,0 -179.2,-80.2304 -179.2,-179.2 0,-5.888 0.32424,-11.69066 0.87894,-17.42506 -31.81227,26.60693 -52.07894,66.56853 -52.07894,111.29172 0,80.11947 64.9472,145.06667 145.06666,145.06667 49.6896,0 93.50827,-25.0112 119.64587,-63.09547 a 180.35199,180.35199 0 0 1 -34.31253,3.36214 z"
     fill="#efad1b"
     id="path8"
     style="stroke-width:8.53336" />
  <g
     id="g22"
     transform="matrix(8.5333333,0,0,8.5333333,-17.066667,-17.066667)">
    <path
       d="m 43,3 h 12 a 6,6 0 0 1 6,6 v 8 a 6,6 0 0 1 -6,6 h -8 l -4,6 V 23 A 6,6 0 0 1 37,17 V 9 a 6,6 0 0 1 6,-6 z"
       fill="#ade8f4"
       id="path10" />
    <path
       d="M 44,11 V 3 h -1 a 6,6 0 0 0 -6,6 v 8 a 6,6 0 0 0 6,6 v 6 l 4,-6 h 8 a 6,6 0 0 0 6,-6 H 50 a 6,6 0 0 1 -6,-6 z"
       fill="#48cae4"
       id="path12" />
    <path
       d="M 43.5,9 H 46 a 2,2 0 0 1 2,-2 h 2 a 2,2 0 0 1 2,2 h 2.5 a 2,2 0 0 1 2,2 v 6 a 2,2 0 0 1 -2,2 h -11 a 2,2 0 0 1 -2,-2 v -6 a 2,2 0 0 1 2,-2 z"
       fill="#93999a"
       id="path14" />
    <circle
       cx="49"
       cy="14"
       fill="#ade8f4"
       r="2"
       id="circle16" />
    <path
       d="m 47.586,12.586 a 2,2 0 1 0 2.828,2.828 z"
       fill="#48cae4"
       id="path18" />
    <path
       d="M 44,11 V 9 h -0.5 a 2,2 0 0 0 -2,2 v 6 a 2,2 0 0 0 2,2 h 11 a 2,2 0 0 0 2,-2 H 50 a 6,6 0 0 1 -6,-6 z"
       fill="#656b76"
       id="path20" />
  </g>
  <g
     id="g34"
     transform="matrix(8.5333333,0,0,8.5333333,-17.066667,-17.066667)">
    <path
       d="M 31.562,24.531 A 9.953,9.953 0 0 0 34,18 C 34,12.477 29.523,8 24,8 18.477,8 14,12.477 14,18 c 0,5.523 4.477,10 10,10 a 9.938,9.938 0 0 0 4.335,-0.999 L 33,29 Z"
       fill="#ade8f4"
       id="path24" />
    <path
       d="m 24,24 -5,-3 v -6 l 5,3 z"
       fill="#fdc741"
       id="path26" />
    <path
       d="m 24,24 5,-3 v -6 l -5,3 z"
       fill="#fcea42"
       id="path28" />
    <path
       d="m 19,15 5,3 5,-3 -5,-3 z"
       fill="#fffa48"
       id="path30" />
    <path
       d="M 32.151,23.775 A 11.356,11.356 0 0 1 27,25 c -6.075,0 -11,-4.701 -11,-10.5 0,-1.072 0.17,-2.106 0.483,-3.081 A 9.956,9.956 0 0 0 14,18 c 0,5.523 4.477,10 10,10 a 9.938,9.938 0 0 0 4.335,-0.999 L 33,29 31.562,24.531 c 0.209,-0.242 0.404,-0.495 0.589,-0.756 z"
       fill="#48cae4"
       id="path32" />
  </g>
  <g
     id="g44"
     transform="matrix(8.5333333,0,0,8.5333333,-17.066667,-17.066667)">
    <path
       d="M 23,35 V 23 A 2,2 0 0 0 21,21 H 5 a 2,2 0 0 0 -2,2 v 20 a 2,2 0 0 0 2,2 h 16 a 2,2 0 0 0 2,-2 v -3 h 5 z"
       fill="#e9f1f2"
       id="path36" />
    <path
       d="M 16,35 A 6,6 0 0 1 10,29 V 21 H 5 a 2,2 0 0 0 -2,2 v 20 a 2,2 0 0 0 2,2 h 16 a 2,2 0 0 0 2,-2 v -3 h 5 l -5,-5 z"
       fill="#d0d8da"
       id="path38" />
    <path
       d="M 7,25 H 19 V 41 H 7 Z"
       fill="#48cae4"
       id="path40" />
    <path
       d="M 16,35 A 6,6 0 0 1 10,29 V 25 H 7 v 16 h 12 v -6 z"
       fill="#00b4d8"
       id="path42" />
  </g>
  <g
     id="g60"
     transform="matrix(8.5333333,0,0,8.5333333,-17.066667,-17.066667)">
    <g
       fill="#323232"
       id="g58">
      <circle
         cx="53"
         cy="40"
         r="1"
         id="circle46" />
      <path
         d="m 35,45 a 1.002,1.002 0 0 0 1,-1 v -8 a 1,1 0 1 0 -2,0 v 3.764 L 31.895,35.553 A 1,1 0 0 0 30,36 v 8 a 1,1 0 1 0 2,0 v -3.764 l 2.105,4.211 A 1,1 0 0 0 35,45 Z m 8,-8 a 1,1 0 1 0 0,-2 h -4 a 1,1 0 0 0 -1,1 v 8 a 1,1 0 1 0 2,0 v -3 h 2 a 1,1 0 1 0 0,-2 h -2 v -2 z m 6,8 a 1,1 0 0 0 1,-1 v -7 h 1 a 1,1 0 1 0 0,-2 h -4 a 1,1 0 1 0 0,2 h 1 v 7 a 1,1 0 0 0 1,1 z m -9.555,7.832 a 1,1 0 0 0 1.11,0 l 6,-4 a 1.001,1.001 0 0 0 -1.11,-1.664 L 40,50.798 34.555,47.168 a 1.0001245,1.0001245 0 1 0 -1.11,1.664 z"
         id="path48" />
      <path
         d="M 62,17 V 9 C 62,5.141 58.86,2 55,2 a 1,1 0 1 0 0,2 c 2.757,0 5,2.243 5,5 v 8 c 0,2.757 -2.243,5 -5,5 h -8 c -0.334,0 -0.646,0.167 -0.832,0.445 L 44,25.697 V 23 a 1,1 0 0 0 -1,-1 c -2.757,0 -5,-2.243 -5,-5 V 9 c 0,-2.757 2.243,-5 5,-5 h 8 a 1,1 0 1 0 0,-2 h -8 c -3.86,0 -7,3.141 -7,7 v 8 a 6.98,6.98 0 0 0 2.213,5.099 18.042,18.042 0 0 0 -4.499,1.047 A 10.973,10.973 0 0 0 35,18 C 35,11.935 30.065,7 24,7 A 10.92,10.92 0 0 0 17.937,8.827 1.0004024,1.0004024 0 0 0 19.045,10.493 8.922,8.922 0 0 1 24,9 c 4.962,0 9,4.037 9,9 a 8.96,8.96 0 0 1 -2.195,5.875 1.001,1.001 0 0 0 -0.197,0.962 l 0.766,2.379 -2.651,-1.135 a 0.995,0.995 0 0 0 -0.827,0.018 8.945,8.945 0 0 1 -3.897,0.883 V 25 c 0.178,0 0.356,-0.048 0.515,-0.143 l 5,-3 A 0.996,0.996 0 0 0 30,21 v -6 a 0.997,0.997 0 0 0 -0.485,-0.857 l -5,-3 a 1.005,1.005 0 0 0 -1.029,0 l -5,3 A 0.996,0.996 0 0 0 18,15 v 5 H 15.245 A 8.93,8.93 0 0 1 15,18 8.92,8.92 0 0 1 16.493,13.044 1.0004024,1.0004024 0 0 0 14.827,11.936 10.925,10.925 0 0 0 13,18 c 0,0.677 0.084,1.342 0.206,2 H 5 c -1.654,0 -3,1.346 -3,3 v 6 a 1,1 0 1 0 2,0 v -6 c 0,-0.552 0.449,-1 1,-1 h 16 c 0.551,0 1,0.448 1,1 v 12 c 0,0.266 0.105,0.52 0.293,0.707 L 25.586,39 H 23 a 1,1 0 0 0 -1,1 v 3 c 0,0.552 -0.449,1 -1,1 H 5 C 4.449,44 4,43.552 4,43 V 33 a 1,1 0 1 0 -2,0 v 10 c 0,1.654 1.346,3 3,3 H 18.874 C 21.547,55.456 30.112,62 40,62 52.131,62 62,52.131 62,40 A 21.98,21.98 0 0 0 56.962,26.016 1.0000382,1.0000382 0 0 0 55.421,27.291 19.97,19.97 0 0 1 60,40 C 60,51.028 51.028,60 40,60 A 19.92,19.92 0 0 1 20.954,46 H 21 c 0.691,0 1.321,-0.244 1.828,-0.639 C 25.129,52.665 31.984,58 40,58 c 4.096,0 7.949,-1.337 11.141,-3.866 A 1.0001485,1.0001485 0 0 0 49.899,52.566 C 47.063,54.812 43.641,56 40,56 31.556,56 24.575,49.339 24.052,41 H 28 a 1,1 0 0 0 0.707,-1.707 l -3.978,-3.978 a 15.89,15.89 0 0 1 4.302,-6.926 l 3.575,1.53 a 0.997,0.997 0 0 0 1.067,-0.18 1,1 0 0 0 0.278,-1.046 L 32.967,25.638 A 16.005,16.005 0 0 1 40,24 c 0.645,0 1.312,0.061 2,0.151 v 3.98 l -1.445,-0.964 a 0.995,0.995 0 0 0 -1.109,0 l -6,4 a 1.001,1.001 0 0 0 1.11,1.664 L 40,29.202 l 5.445,3.63 a 1.004,1.004 0 0 0 1.387,-0.277 c 0.306,-0.46 0.182,-1.08 -0.277,-1.387 l -2.63,-1.753 2.65,-3.975 C 52.311,28.03 56,33.694 56,40 c 0,3.642 -1.188,7.064 -3.434,9.898 a 1.0001485,1.0001485 0 1 0 1.568,1.242 C 56.663,47.949 58,44.097 58,40 A 17.951,17.951 0 0 0 48.215,24 H 55 c 3.86,0 7,-3.141 7,-7 z M 25.927,28.819 A 17.875,17.875 0 0 0 24,31.795 V 28.98 a 10.882,10.882 0 0 0 1.927,-0.161 z M 25,22.234 v -3.667 l 3,-1.8 v 3.667 z M 24,13.166 27.056,15 24,16.834 20.944,15 Z M 21,20 h -1 v -3.234 l 3,1.8 V 20.78 A 2.98,2.98 0 0 0 21,20 Z"
         id="path50" />
      <path
         d="M 48,6 A 3.006,3.006 0 0 0 45.171,8 H 43.5 c -1.654,0 -3,1.346 -3,3 v 6 c 0,1.654 1.346,3 3,3 h 11 c 1.654,0 3,-1.346 3,-3 v -6 c 0,-1.654 -1.346,-3 -3,-3 H 52.829 A 3.006,3.006 0 0 0 50,6 Z m 3,3 a 1,1 0 0 0 1,1 h 2.5 c 0.551,0 1,0.448 1,1 v 6 c 0,0.552 -0.449,1 -1,1 h -11 c -0.551,0 -1,-0.448 -1,-1 v -6 c 0,-0.552 0.449,-1 1,-1 H 46 a 1,1 0 0 0 1,-1 c 0,-0.552 0.449,-1 1,-1 h 2 c 0.551,0 1,0.448 1,1 z"
         id="path52" />
      <path
         d="m 46,14 c 0,1.654 1.346,3 3,3 1.654,0 3,-1.346 3,-3 0,-1.654 -1.346,-3 -3,-3 -1.654,0 -3,1.346 -3,3 z m 4,0 a 1.001,1.001 0 0 1 -2,0 1.001,1.001 0 0 1 2,0 z M 19,42 a 1,1 0 0 0 1,-1 V 25 A 1,1 0 0 0 19,24 H 7 a 1,1 0 0 0 -1,1 v 16 a 1,1 0 0 0 1,1 z M 8,26 H 18 V 40 H 8 Z"
         id="path54" />
      <path
         d="m 15,28 h -2 a 1,1 0 1 0 0,2 h 2 a 1,1 0 1 0 0,-2 z m 0,4 h -4 a 1,1 0 1 0 0,2 h 4 a 1,1 0 1 0 0,-2 z m 0,4 h -4 a 1,1 0 1 0 0,2 h 4 a 1,1 0 1 0 0,-2 z"
         id="path56" />
    </g>
  </g>
</svg>
