<?xml version="1.0" encoding="UTF-8" standalone="no"?>
<svg
   version="1.1"
   id="svg14"
   sodipodi:docname="Icon_twitter_01.svg"
   width="512"
   height="512"
   inkscape:version="1.1 (1:1.1+202106031931+af4d65493e)"
   xmlns:inkscape="http://www.inkscape.org/namespaces/inkscape"
   xmlns:sodipodi="http://sodipodi.sourceforge.net/DTD/sodipodi-0.dtd"
   xmlns="http://www.w3.org/2000/svg"
   xmlns:svg="http://www.w3.org/2000/svg">
  <sodipodi:namedview
     id="namedview10"
     pagecolor="#ffffff"
     bordercolor="#666666"
     borderopacity="1.0"
     inkscape:pageshadow="2"
     inkscape:pageopacity="0.0"
     inkscape:pagecheckerboard="0"
     showgrid="false"
     width="512px"
     inkscape:zoom="0.565"
     inkscape:cx="-48.672566"
     inkscape:cy="427.43363"
     inkscape:window-width="1920"
     inkscape:window-height="1016"
     inkscape:window-x="1920"
     inkscape:window-y="27"
     inkscape:window-maximized="1"
     inkscape:current-layer="svg14" />
  <defs
     id="defs18" />
  <path
     d="m 446.65102,188.49037 c 0,152.31011 -123.47199,275.7821 -275.78211,275.7821 -57.42827,0 -110.752811,-17.55786 -154.909946,-47.59491 C -0.04299731,405.79127 8.274463,380.90688 27.620208,381.45185 142.28277,384.67764 174.55067,276.16868 174.55067,183.60468 c 0,-74.83814 60.42008,-135.561201 135.14124,-136.061168 77.02,-0.510967 138.15103,63.939848 136.94111,140.950858 z"
     fill="#a3defe"
     id="path2"
     style="stroke-width:0.999935" />
  <path
     d="M 262.38298,272.09494 C 269.7275,214.57467 235.7977,160.1622 181.56122,140.44348 c -4.53371,13.56212 -6.99255,28.07518 -6.99255,43.1622 0,73.35224 -20.27768,156.69984 -85.743433,186.5479 a 183.62809,183.62809 0 0 0 33.709813,8.31746 c 68.59555,10.16834 131.20149,-38.65249 139.85093,-106.3631 z"
     fill="#7acefa"
     id="path4"
     style="stroke-width:0.999935" />
  <path
     d="m 52.648584,135.32382 c -1.611896,39.08446 10.353328,78.5529 35.778678,110.9528 a 213.08617,213.08617 0 0 1 -48.687841,-3.1178 c -17.610857,-3.17779 -30.9479915,15.55799 -22.053569,31.08598 22.396547,39.10047 61.838988,67.56762 109.412898,74.56916 51.42167,7.56751 98.93558,-28.96212 105.52316,-80.51877 5.66063,-44.32513 -20.96264,-86.3044 -63.36889,-100.39349 C 138.735,157.76436 110.9758,141.58141 87.39233,120.77476 74.249182,109.17851 53.370537,117.81295 52.648584,135.32482 Z"
     fill="#a3defe"
     id="path6"
     style="stroke-width:0.999935" />
  <path
     d="m 462.82997,140.75346 c 9.3204,-12.52418 14.92003,-31.42196 15.20701,-59.660125 0.074,-7.279528 -8.23846,-11.544251 -14.00509,-7.100539 -14.27107,10.998286 -27.90619,17.633855 -42.56124,23.144498 -15.25801,5.736626 -26.1093,19.409736 -27.95418,35.605686 l -0.047,0.41498 a 65.763733,65.763733 0 0 0 19.59373,54.68745 c 7.7145,7.46951 18.5498,10.8063 29.12111,8.92442 33.36983,-5.94062 53.45053,-29.74907 61.628,-49.64578 2.71882,-6.61457 -3.27379,-13.50512 -10.20634,-11.74724 -10.01435,2.53884 -21.23162,4.77869 -30.42802,5.98861 -0.33898,0.044 -0.55197,-0.33697 -0.34798,-0.61196 z"
     fill="#7acefa"
     id="path8"
     style="stroke-width:0.999935" />
  <ellipse
     cx="319.29929"
     cy="182.76074"
     rx="28.917124"
     ry="23.028507"
     fill="#ffffff"
     id="ellipse10"
     style="stroke-width:0.999935" />
  <path
     d="M 59.895114,432.81451 A 268.65257,268.65257 0 0 1 20.18569,410.47996 c -9.777365,-6.65057 -4.677696,-21.87458 7.231531,-21.5286 38.779484,1.09693 71.178382,-10.03735 96.348749,-33.07685 58.22922,9.40639 109.23291,-31.30697 116.29245,-86.62638 5.54764,-43.43319 -17.88584,-85.16348 -56.72032,-103.71327 4.89869,-34.75075 23.89945,-66.111714 52.72958,-86.67238 A 7.4999134,7.4999134 0 0 0 227.35825,66.650272 C 196.15427,88.904828 175.26263,122.50265 169.03203,159.90122 140.74087,150.13086 114.94954,135.09783 92.351008,115.16112 74.414172,99.337151 46.132007,111.29138 45.15307,135.02584 A 176.15857,176.15857 0 0 0 73.9722,239.02909 206.20662,206.20662 0 0 1 41.068335,235.7893 c -23.904449,-4.30972 -41.94327833,21.15363 -29.89206,42.19326 20.838648,36.38064 54.425468,62.48595 94.059895,73.78321 -20.92464,15.59299 -46.894955,23.04351 -77.397976,22.19956 -26.88025625,-0.75895 -38.270517,33.83381 -16.089956,48.92383 a 283.6616,283.6616 0 0 0 41.932279,23.58447 7.4995134,7.4995134 0 0 0 9.932356,-3.71976 7.4985135,7.4985135 0 0 0 -3.718759,-9.93136 z M 24.19343,270.52504 c -5.781625,-10.09434 2.949809,-22.01457 14.214078,-19.9787 a 220.98566,220.98566 0 0 0 48.018884,3.31279 c 17.481868,10.34932 44.637108,18.3468 53.157548,18.3468 a 7.5005133,7.5005133 0 0 0 0.74695,-14.96202 C 125.76084,255.767 103.2503,246.5536 93.55493,240.64698 A 161.07955,161.07955 0 0 1 60.141098,135.6438 c 0.46097,-11.18328 13.824103,-16.70492 22.288554,-9.23641 41.008338,36.17866 78.992878,46.20601 89.855168,50.63672 38.5565,16.47093 57.52527,54.06449 52.89657,90.30714 -6.1416,48.08988 -51.37667,83.37059 -102.33336,73.15025 C 81.132736,332.787 45.386055,307.51964 24.19543,270.52404 Z M 329.8836,157.71236 a 6.272593,6.272593 0 0 1 6.26459,-6.26559 6.272593,6.272593 0 0 1 6.26559,6.26559 7.4995134,7.4995134 0 0 0 7.49952,7.49952 c 4.14273,0 7.49951,-3.35679 7.49951,-7.49952 0,-11.72524 -9.53938,-21.26462 -21.26462,-21.26462 -11.72524,0 -21.26362,9.53938 -21.26362,21.26462 0,4.14273 3.35678,7.49952 7.49951,7.49952 4.14273,0 7.49952,-3.35779 7.49952,-7.49952 z m 161.88949,-29.58908 a 295.62082,295.62082 0 0 1 -15.05902,3.39278 C 482.4317,118.32392 485.33651,101.697 485.5455,81.186329 485.68249,67.60221 470.15449,59.833714 459.46319,68.06918 445.94907,78.482504 433.90185,84.349124 418.72983,90.176745 378.89542,43.591768 316.17649,28.570743 261.07006,48.836428 a 7.4995134,7.4995134 0 0 0 -4.44971,9.627375 7.4975135,7.4975135 0 0 0 9.62737,4.449711 c 48.61885,-17.882839 103.47329,-5.036673 139.10098,34.743746 -10.65431,8.25546 -17.70885,20.46567 -19.27675,34.24178 l -0.05,0.42597 c -2.55583,22.43754 5.60364,45.21407 21.82959,60.92505 a 41.043337,41.043337 0 0 0 30.797,11.47625 C 428.4272,376.52517 259.80014,495.77743 93.080961,445.3307 a 7.500034,7.500034 0 0 0 -4.344719,14.35707 C 266.31472,513.42128 445.4531,384.89962 453.83255,201.69451 c 29.79907,-9.02141 48.77784,-31.88693 56.92031,-51.69865 5.05767,-12.3032 -6.0876,-25.14736 -18.98577,-21.86958 z m 5.11267,16.16595 c -7.53351,18.32982 -26.2033,39.80742 -56.00637,45.11308 -8.16547,1.4539 -16.60892,-1.13793 -22.59053,-6.92855 -12.90216,-12.49419 -19.39274,-30.60702 -17.36087,-48.44086 l 0.05,-0.42597 c 1.35492,-11.90123 8.54845,-22.13757 19.11476,-27.62421 6.47458,-3.38778 25.53435,-8.31846 48.52585,-26.035311 0.83495,-0.645958 1.93888,0.07 1.92788,1.08493 -0.25498,25.117371 -4.74369,43.192201 -13.72411,55.259411 -4.14873,5.57264 0.41597,13.41213 7.34452,12.52319 9.2754,-1.22092 20.68166,-3.46477 31.29097,-6.1546 0.18299,-0.043 0.72796,-0.18399 1.22092,0.38598 0.48597,0.56096 0.27599,1.07293 0.20699,1.24291 z"
     id="path12"
     style="stroke-width:0.999935" />
</svg>
