<svg xmlns="http://www.w3.org/2000/svg"><path d="M171.19 342.952v45.646c0 36.397 29.505 65.902 65.902 65.902h37.817c36.397 0 65.902-29.505 65.902-65.902v-45.646z" fill="#5766cb"/><path d="M340.839 251.095H171.161c-7.504 0-13.586 5.773-13.586 12.893 0 7.121 6.083 12.893 13.586 12.893h169.678c7.504 0 13.586-5.773 13.586-12.893 0-7.12-6.082-12.893-13.586-12.893z" fill="#d0e2e7"/><path d="M171.19 251.095v-87.503c0-36.397 29.505-65.902 65.902-65.902h37.817c36.397 0 65.902 29.505 65.902 65.902v87.503z" fill="#617881"/><path d="M282.626 98.137c11.267 11.825 18.184 27.832 18.184 45.454V195.8c0 19.492-15.802 35.294-35.294 35.294H171.19v20h169.62v-87.503c0-33.785-25.424-61.632-58.184-65.454z" fill="#475959"/><path d="M103.577 340.205h13.826v-35.573h-13.826c-6.209 0-11.242 5.033-11.242 11.242v13.089c0 6.209 5.033 11.242 11.242 11.242z" fill="#d0e2e7"/><circle cx="256" cy="383.298" fill="#dd5790" r="16.608"/><path d="M342.849 342.952H169.151a1.436 1.436 0 0 1-1.436-1.436V303.32c0-.793.643-1.436 1.436-1.436h173.698c.793 0 1.436.643 1.436 1.436v38.195c0 .794-.643 1.437-1.436 1.437z" fill="#d0e2e7"/><path d="M142.403 309.762h25.312v25.312h-25.312z" fill="#b4d0d5"/><path d="M408.423 340.205h-13.826v-35.573h13.826c6.209 0 11.242 5.033 11.242 11.242v13.089c0 6.209-5.033 11.242-11.242 11.242z" fill="#d0e2e7"/><path d="M142.403 296.976v98.081c0 46.636 37.806 84.442 84.442 84.442h58.31c46.636 0 84.442-37.806 84.442-84.442v-98.088c0-.506.41-.91.917-.91h23.167c.506 0 .917.41.917.917v98.081c0 60.443-48.999 109.442-109.442 109.442h-58.311c-60.443 0-109.442-48.999-109.442-109.442v-98.081c0-.506.404-.917.91-.917h23.18c.505.001.91.411.91.917z" fill="#f1f4f6"/><path d="M369.598 335.074h-25.312v-25.312h25.312z" fill="#b4d0d5"/><path d="M171.19 276.882h169.621v25.002H171.19z" fill="#5766cb"/><path d="M300.81 342.952v1.987c0 49.463-40.098 89.561-89.561 89.561h-14.158c-2.611 0-5.186-.152-7.717-.447 12.003 12.597 28.944 20.447 47.718 20.447h37.817c36.397 0 65.902-29.505 65.902-65.902v-45.646z" fill="#3d4fc3"/><path d="M342.849 301.884h-38.564v3.332c0 9.796-7.941 17.736-17.736 17.736H167.715v18.564c0 .793.643 1.436 1.436 1.436h173.698c.793 0 1.436-.643 1.436-1.436V303.32c0-.793-.643-1.436-1.436-1.436z" fill="#b4d0d5"/><path d="M300.81 276.882h40v25.002h-40z" fill="#3d4fc3"/><path d="M497.64 51.5H284.366a6.86 6.86 0 0 0-6.86 6.86v39.38c35.192 1.364 63.304 30.325 63.304 65.851v47.142h77.205c.944 0 1.85.375 2.518 1.043l43.879 43.879c2.243 2.243 6.079.654 6.079-2.518v-38.843a3.56 3.56 0 0 1 3.561-3.561h23.588a6.86 6.86 0 0 0 6.86-6.86V58.36a6.86 6.86 0 0 0-6.86-6.86z" fill="#86f1a7"/><path d="M171.19 163.592c0-35.527 28.111-64.487 63.304-65.851V14.36a6.86 6.86 0 0 0-6.86-6.86H14.36a6.86 6.86 0 0 0-6.86 6.86v145.515a6.86 6.86 0 0 0 6.86 6.86h23.588a3.56 3.56 0 0 1 3.561 3.561v38.843c0 3.173 3.836 4.761 6.079 2.518l43.879-43.879a3.561 3.561 0 0 1 2.518-1.043h77.205z" fill="#7ad0df"/><path d="M497.64 51.5H464.5v99.77c0 21.795-17.669 39.464-39.464 39.464H340.81v20h77.205c.944 0 1.85.375 2.518 1.043l43.879 43.879c2.243 2.243 6.079.654 6.079-2.518v-38.843a3.56 3.56 0 0 1 3.561-3.561h23.588a6.86 6.86 0 0 0 6.86-6.86V58.36a6.86 6.86 0 0 0-6.86-6.86z" fill="#80e29d"/><path d="M227.634 7.5h-33.14v50.303c0 49.115-39.816 88.931-88.931 88.931H7.501v13.14a6.86 6.86 0 0 0 6.86 6.86h23.588a3.56 3.56 0 0 1 3.561 3.561v38.843c0 3.173 3.836 4.761 6.079 2.518l43.879-43.879a3.561 3.561 0 0 1 2.518-1.043h77.205v-3.142c0-35.527 28.111-64.487 63.304-65.851V14.36a6.862 6.862 0 0 0-6.861-6.86z" fill="#70c6da"/><path d="M199.494 49.872H42.5c-4.142 0-7.5 3.357-7.5 7.5s3.358 7.5 7.5 7.5h156.994c4.142 0 7.5-3.357 7.5-7.5s-3.358-7.5-7.5-7.5zM206.994 87.117a7.5 7.5 0 0 0-7.5-7.5H107.67c-4.142 0-7.5 3.357-7.5 7.5s3.358 7.5 7.5 7.5h91.823a7.5 7.5 0 0 0 7.501-7.5zM42.5 94.617h40.17c4.142 0 7.5-3.357 7.5-7.5s-3.358-7.5-7.5-7.5H42.5c-4.142 0-7.5 3.357-7.5 7.5s3.358 7.5 7.5 7.5zM42.5 124.362h85.053c4.142 0 7.5-3.357 7.5-7.5s-3.358-7.5-7.5-7.5H42.5c-4.142 0-7.5 3.357-7.5 7.5s3.358 7.5 7.5 7.5zM430.812 108.872H469.5c4.142 0 7.5-3.357 7.5-7.5s-3.358-7.5-7.5-7.5h-38.688c-4.142 0-7.5 3.357-7.5 7.5s3.357 7.5 7.5 7.5zM469.5 123.617h-91.823c-4.142 0-7.5 3.357-7.5 7.5s3.358 7.5 7.5 7.5H469.5c4.142 0 7.5-3.357 7.5-7.5s-3.358-7.5-7.5-7.5z"/><path d="M497.64 44H284.366c-7.918 0-14.359 6.441-14.359 14.359V90.19h-28.014V14.359C241.993 6.441 235.552 0 227.634 0H107.67c-4.142 0-7.5 3.357-7.5 7.5s3.358 7.5 7.5 7.5h119.323v75.883c-15.028 2.077-28.618 8.72-39.318 18.479h-35.122c-4.142 0-7.5 3.357-7.5 7.5s3.358 7.5 7.5 7.5h22.523a72.916 72.916 0 0 0-11.258 34.872H93.985c-2.955 0-5.732 1.15-7.821 3.239l-37.155 37.155v-29.334c0-6.099-4.962-11.061-11.061-11.061H15V15h57.67c4.142 0 7.5-3.357 7.5-7.5S76.812 0 72.67 0H14.36C6.442 0 0 6.441 0 14.359v145.515c0 7.918 6.442 14.36 14.36 14.36h19.648v34.904c0 4.489 2.68 8.5 6.828 10.219a11.031 11.031 0 0 0 12.054-2.397l42.726-42.726h68.073v70.682c-7.95 2.923-13.615 10.369-13.615 19.071s5.665 16.148 13.615 19.071v13.193a8.937 8.937 0 0 0-3.412 6.01h-10.375v-5.285c0-4.642-3.773-8.417-8.41-8.417h-23.18c-4.637 0-8.41 3.775-8.41 8.417v.155h-6.326c-10.334 0-18.742 8.407-18.742 18.742v13.089c0 10.335 8.408 18.742 18.742 18.742h6.326v47.353c0 64.482 52.46 116.942 116.942 116.942h58.311c64.482 0 116.942-52.46 116.942-116.942v-47.353h6.326c10.334 0 18.742-8.407 18.742-18.742v-13.089c0-10.335-8.408-18.742-18.742-18.742h-6.326v-.155c0-4.642-3.775-8.417-8.417-8.417h-23.167c-4.641 0-8.417 3.772-8.417 8.409v5.293h-10.375a8.937 8.937 0 0 0-3.412-6.01V283.06c7.95-2.923 13.615-10.369 13.615-19.071s-5.665-16.148-13.615-19.071v-26.682h68.073l42.726 42.726a11.027 11.027 0 0 0 12.054 2.397 11.029 11.029 0 0 0 6.828-10.219v-34.904h19.648c7.918 0 14.36-6.442 14.36-14.36V58.359C512 50.441 505.558 44 497.64 44zM340.839 258.595c3.356 0 6.086 2.42 6.086 5.394s-2.73 5.394-6.086 5.394H171.161c-3.356 0-6.086-2.42-6.086-5.394s2.73-5.394 6.086-5.394zm-190.937 83.979h10.375a8.937 8.937 0 0 0 3.412 6.01v40.014c0 40.475 32.928 73.402 73.402 73.402h37.817c40.474 0 73.402-32.928 73.402-73.402v-40.014a8.937 8.937 0 0 0 3.412-6.01h10.375v52.483c0 42.426-34.516 76.942-76.942 76.942h-58.311c-42.426 0-76.942-34.517-76.942-76.942zm186.883-33.19v26.068h-109.69c-4.142 0-7.5 3.357-7.5 7.5s3.358 7.5 7.5 7.5H333.31v38.146c0 32.203-26.199 58.402-58.402 58.402h-37.817c-32.203 0-58.402-26.199-58.402-58.402v-38.146h13.406c4.142 0 7.5-3.357 7.5-7.5s-3.358-7.5-7.5-7.5h-16.88v-26.068zm-158.096-15v-10.002H333.31v10.002zm50.7-188.688-50.194 50.194c3.448-26.054 24.138-46.746 50.194-50.194zm40.346-.506-91.046 91.046V177.61l72.419-72.42zm63.576 95.746-42.66 42.659h-18.616l61.275-61.275v18.616zm-21.446 42.659 21.446-21.445v21.445zm-6.232-84.035a7.5 7.5 0 0 0 10.606 0l14.168-14.168a58.07 58.07 0 0 1 2.853 15.764l-82.439 82.439h-18.616l58.538-58.538a7.5 7.5 0 0 0-10.606-10.607l-69.145 69.146h-18.618l122.522-122.531a58.863 58.863 0 0 1 8.548 10.078l-17.81 17.81a7.5 7.5 0 0 0-.001 10.607zm-126.944 76.506V217.45l110.495-110.495a57.988 57.988 0 0 1 13.393 5.215zm-18.474 81.196v10.312h-10.312v-10.312zm-56.638 15.443a3.747 3.747 0 0 1-3.742-3.742v-13.089a3.747 3.747 0 0 1 3.742-3.742h6.326v20.573zm304.846-20.573a3.747 3.747 0 0 1 3.742 3.742v13.089a3.747 3.747 0 0 1-3.742 3.742h-6.326v-20.573zm-31.325-8.572h10v91.498c0 56.211-45.731 101.942-101.942 101.942h-58.311c-56.211 0-101.942-45.731-101.942-101.942V303.56h10v91.498c0 50.697 41.245 91.942 91.942 91.942h58.311c50.697 0 91.942-41.245 91.942-91.942zm-15 24.014h-10.312v-10.312h10.312zM497 203.234h-22.947c-6.099 0-11.061 4.962-11.061 11.061v29.334l-37.155-37.155a10.988 10.988 0 0 0-7.821-3.239h-69.705v-34.872h82.501c4.142 0 7.5-3.357 7.5-7.5s-3.358-7.5-7.5-7.5H347.6a72.76 72.76 0 0 0-3.665-14.745h8.741c4.142 0 7.5-3.357 7.5-7.5s-3.358-7.5-7.5-7.5h-16.231a73.956 73.956 0 0 0-12.663-14.745h82.029c4.142 0 7.5-3.357 7.5-7.5s-3.358-7.5-7.5-7.5h-93.305a7.49 7.49 0 0 0-6.25 3.354 72.82 72.82 0 0 0-21.249-6.343V59H497z"/><path d="M256 407.406c13.293 0 24.107-10.814 24.107-24.107S269.293 359.19 256 359.19s-24.107 10.815-24.107 24.108 10.814 24.108 24.107 24.108zm0-33.216c5.022 0 9.107 4.086 9.107 9.108 0 5.021-4.085 9.107-9.107 9.107s-9.107-4.086-9.107-9.107c0-5.022 4.085-9.108 9.107-9.108z"/></svg>