<svg width="512" height="512" version="1.1" xmlns="http://www.w3.org/2000/svg">
 <g stroke-width="8.258">
  <path d="m504.74 471.71v24.774c0 4.5419-3.7161 8.2581-8.2581 8.2581h-41.29v-33.032zm-49.548-66.064h49.548v33.032h-49.548zm-33.032-66.064h82.581v33.032h-82.581zm-412.9 66.064h82.581v33.032h-82.581zm115.61-66.064v33.032h-82.581v-33.032z" fill="#ffc729"/>
  <path d="m422.16 314.81c0-4.5419 3.7161-8.2581 8.2581-8.2581h66.065c4.5419 0 8.2581 3.7161 8.2581 8.2581v24.774h-82.581zm82.581 57.806v33.032h-82.581v-33.032zm-49.548 66.064h49.548v33.032h-49.548zm-363.35 0v33.032h-74.323c-4.5419 0-8.2581-3.7161-8.2581-8.2581v-24.774zm0-66.064v33.032h-82.581v-24.774c0-4.5419 3.7161-8.2581 8.2581-8.2581h24.774zm33.032-56.981v23.948h-82.581v-24.774c0-4.5419 3.7161-8.2581 8.2581-8.2581h66.065c4.5419 0 8.2581 3.7161 8.2581 9.0839z" fill="#fcd770"/>
  <path d="m455.19 471.71v33.032h-189.94c-4.5419 0-8.2581-3.7161-8.2581-8.2581v-24.774h165.16zm-198.19-33.032v33.032h-165.16v-33.032h99.097z" fill="#a0d468"/>
  <path d="m422.16 405.65c0 18.25 14.782 33.032 33.032 33.032-18.25 0-33.032 14.782-33.032 33.032h-66.065c18.25 0 33.032-14.782 33.032-33.032s-14.782-33.032-33.032-33.032zm-82.581 0h16.516c-18.25 0-33.032 14.782-33.032 33.032s14.782 33.032 33.032 33.032h-66.065c0-18.25-14.782-33.032-33.032-33.032 18.25 0 33.032-14.782 33.032-33.032zm-148.65-33.032c-18.25 0-33.032 14.782-33.032 33.032s14.782 33.032 33.032 33.032h-66.065c0-18.25-14.782-33.032-33.032-33.032 18.25 0 33.032-14.782 33.032-33.032h49.548z" fill="#b4dd7f"/>
  <path d="m290.03 405.65h-24.774c-4.5419 0-8.2581 3.7161-8.2581 8.2581v24.774h-66.065c18.25 0 33.032-14.782 33.032-33.032s-14.782-33.032-33.032-33.032h66.065c0 18.25 14.782 33.032 33.032 33.032z" fill="#b4dd7f"/>
  <path d="m455.19 405.65v33.032c-18.25 0-33.032-14.782-33.032-33.032zm0 33.032v33.032h-33.032c0-18.25 14.782-33.032 33.032-33.032zm-198.19 0c18.25 0 33.032 14.782 33.032 33.032h-33.032zm8.2581-33.032h24.774c0 18.25-14.782 33.032-33.032 33.032v-24.774c0-4.5419 3.7161-8.2581 8.2581-8.2581zm24.774-24.774v24.774c-18.25 0-33.032-14.782-33.032-33.032h24.774c4.5419 0 8.2581 3.7161 8.2581 8.2581zm-165.16 57.806h-33.032v-33.032c18.25 0 33.032 14.782 33.032 33.032zm-33.032-66.064h33.032c0 18.25-14.782 33.032-33.032 33.032z" fill="#a0d468"/>
  <ellipse cx="356.1" cy="438.68" rx="33.032" ry="33.032" fill="#fcd770"/>
  <ellipse cx="190.94" cy="405.65" rx="33.032" ry="33.032" fill="#fcd770"/>
  <path d="m372.61 240.48c0 22.627 11.314 42.529 28.655 54.421-15.608 8.0929-32.454 14.039-50.374 17.672l-11.314 2.2297v90.839h-49.548v-24.774c0-4.5419-3.7161-8.2581-8.2581-8.2581h-107.35v-57.806l-11.314-2.2297a191.92 191.92 0 0 1-50.374-17.672c3.3858-2.2297 6.4413-4.8723 9.3316-7.68a66.18 66.18 0 0 0 19.324-46.741c0-0.82581 0-1.7342-0.0826-2.56h0.0826c7.7626 2.4774 15.855 4.129 24.279 4.9548l35.51 3.551 14.534 43.603 41.29-24.774 41.29 24.774 14.534-43.603 35.51-3.551c8.4232-0.82581 16.516-2.4774 24.279-4.9548v1.6516z" fill="#ff826e"/>
  <path d="m312.82 246.43-14.534 43.603-41.29-24.774 33.032-16.516zm-55.825 18.828-41.29 24.774-14.534-43.603 22.792 2.3123z" fill="#fc6e51"/>
  <path d="m463.45 91.839v49.548h-24.774c-6.8542 0-13.048-2.8077-17.507-7.2671-0.8258-0.82581-1.569-1.7342-2.3123-2.6426-3.0555-4.129-4.9548-9.249-4.9548-14.864a24.741 24.741 0 0 1 24.774-24.774zm-363.35 24.774c0 5.6155-1.8994 10.735-4.9548 14.864-0.74322 0.90839-1.4865 1.8168-2.3123 2.6426-4.4594 4.4594-10.653 7.2671-17.507 7.2671h-24.774v-49.548h24.774a24.741 24.741 0 0 1 24.774 24.774z" fill="#ffeaa7"/>
  <path d="m438.68 25.775v13.461c0 0.99097 0 2.0645-0.0826 3.0555-0.4129 17.177-5.0374 34.023-13.461 49.053l-4.6245 8.4232-14.204-14.865a61.068 61.068 0 0 1-17.177-42.612s8.2581-16.516 49.548-16.516zm-363.35 0c41.29 0 49.548 16.516 49.548 16.516 0 15.938-6.111 31.215-17.177 42.612l-14.204 14.865-4.6245-8.4232a105.55 105.55 0 0 1-13.461-49.053c-0.08258-0.99097-0.08258-2.0645-0.08258-3.0555z" fill="#d3a06c"/>
  <path d="m88.866 91.344 4.6245 8.4232c-4.5419-4.8723-10.983-7.9277-18.168-7.9277h-24.774l-16.516-33.032c10.57-10.57 24.939-16.516 39.886-16.516h1.4865c0.4129 17.177 5.0374 34.023 13.461 49.053zm336.27 0c8.4232-15.03 13.048-31.876 13.461-49.053h1.4864c14.947 0 29.316 5.9458 39.886 16.516l-16.516 33.032h-24.774c-7.1845 0-13.626 3.0555-18.168 7.9277zm13.543 50.044h24.774l34.354 68.624c4.5419 9.1664 6.9368 19.324 6.9368 29.564v0.90839c0 18.25-7.4323 34.766-19.324 46.741a66.18 66.18 0 0 1-46.741 19.324c-13.874 0-26.756-4.2942-37.409-11.644a65.767 65.767 0 0 1-28.655-54.421v-2.56c0.24775-9.6619 2.6426-19.241 6.9368-27.912l39.308-78.534c0.74323 0.90839 1.4865 1.8168 2.3123 2.6426 4.4594 4.4594 10.653 7.2671 17.507 7.2671zm-363.35 0c6.8542 0 13.048-2.8077 17.507-7.2671 0.82581-0.82581 1.569-1.7342 2.3123-2.6426l38.895 77.708c4.3768 9.0013 6.9368 18.746 7.2671 28.738 0.0826 0.82581 0.0826 1.7342 0.0826 2.56 0 18.25-7.4323 34.766-19.324 46.741-2.8903 2.8077-5.9458 5.4503-9.3316 7.68a65.635 65.635 0 0 1-37.409 11.644c-18.25 0-34.766-7.4322-46.741-19.324a66.18 66.18 0 0 1-19.324-46.741c0-10.901 2.56-21.554 7.3497-31.298l33.941-67.799z" fill="#cf9e76"/>
  <path d="m354.53 108.11-4.9548 24.774a24.692 24.692 0 0 0-18.25-8.0103h-8.2581v-16.516c0-9.0839-7.4323-16.516-16.516-16.516h-41.29a41.373 41.373 0 0 1-33.032-16.516h-8.2581c-18.25 0-33.032 14.782-33.032 33.032v16.516h-8.2581c-7.1845 0-13.708 3.0555-18.25 8.0103l-5.5329-27.747c-0.66064-3.3032-0.99096-6.7716-0.99096-10.157 0-8.7535 2.1471-17.177 6.111-24.609 4.0465-7.4323 9.8271-13.874 17.094-18.746l1.569-1.0735c4.9548-12.47 13.543-22.792 24.196-29.977s23.37-11.314 36.831-11.314h29.729c45.667 0 82.663 36.996 82.663 82.663 0 5.4503-0.57806 10.901-1.569 16.186z" fill="#656d78"/>
  <path d="m284.83 222.65 5.2026 26.095-33.032 16.516-33.032-16.516 5.2026-26.095c3.6336 0.90838 7.4323 1.3213 11.314 1.3213h33.032c3.8813 0 7.68-0.4129 11.314-1.3213zm46.493-97.775c7.1845 0 13.708 3.0555 18.25 8.0103 4.0464 4.3768 6.5239 10.24 6.5239 16.764 0 6.8542-2.8077 13.048-7.2671 17.507-4.4594 4.4594-10.653 7.2671-17.507 7.2671h-8.2581v-49.548z" fill="#f0d0b4"/>
  <path d="m323.06 124.87v49.548c0 23.453-16.351 43.107-38.235 48.227-3.6336 0.90838-7.4323 1.3213-11.314 1.3213h-33.032c-3.8813 0-7.68-0.4129-11.314-1.3213-21.884-5.12-38.235-24.774-38.235-48.227v-66.064c0-18.25 14.782-33.032 33.032-33.032h8.2581c7.5148 9.9922 19.572 16.516 33.032 16.516h41.29c9.0839 0 16.516 7.4323 16.516 16.516zm-132.13 0v49.548h-8.2581c-6.8542 0-13.048-2.8077-17.507-7.2671-4.4594-4.4594-7.2671-10.653-7.2671-17.507 0-6.5239 2.4774-12.387 6.5239-16.764 4.5419-4.9548 11.066-8.0103 18.25-8.0103z" fill="#f0d0b4"/>
  <path d="m223.97 157.9h66.065c0 18.25-14.782 33.032-33.032 33.032-9.0839 0-17.342-3.7161-23.37-9.6619a33.239 33.239 0 0 1-9.6619-23.37z" fill="#ff826e"/>
 </g>
 <g transform="matrix(8.2581 0 0 8.2581 -7.2581 -7.2577)">
  <path d="m11 35v-2h2v-3c0-1.654-1.346-3-3-3-0.551 0-1-0.449-1-1v-1h1c0.551 0 1 0.449 1 1v1h2v-1a2.996 2.996 0 0 0-2-2.816v-2.184h-2v2h-2v3c0 1.654 1.346 3 3 3 0.551 0 1 0.449 1 1v1h-1c-0.551 0-1-0.449-1-1v-1h-2v1c0 1.302 0.839 2.402 2 2.816v2.184z"/>
  <circle cx="28" cy="16" r="1"/>
  <circle cx="36" cy="16" r="1"/>
  <path d="m37 20v-1h-10v1c0 2.757 2.243 5 5 5s5-2.243 5-5zm-7.829 1h5.657c-0.413 1.164-1.525 2-2.829 2s-2.415-0.836-2.828-2zm25.829 2.184v-2.184h-2v2h-2v3c0 1.654 1.346 3 3 3 0.551 0 1 0.449 1 1v1h-1c-0.552 0-1-0.449-1-1v-1h-2v1c0 1.302 0.839 2.402 2 2.816v2.184h2v-2h2v-3c0-1.654-1.346-3-3-3-0.552 0-1-0.449-1-1v-1h1c0.551 0 1 0.449 1 1v1h2v-1a2.996 2.996 0 0 0-2-2.816z"/>
  <path d="m63 30v-0.111c0-1.39-0.329-2.782-0.95-4.025l-4.05-8.1v-5.527l2.217-4.434-0.51-0.51a7.77 7.77 0 0 0-4.707-2.248v-2.045h-1c-5.46 0-6.764 2.292-6.895 2.553l-0.105 0.211v0.236a8.42 8.42 0 0 0 2.355 5.857l1.163 1.213a3.953 3.953 0 0 0-0.518 1.93c0 0.664 0.178 1.281 0.465 1.832l-4.515 9.031a9.036 9.036 0 0 0-0.892 3.038c-0.686 0.181-1.384 0.326-2.093 0.397l-6.162 0.616-0.279-1.393a7.008 7.008 0 0 0 4.396-5.522h0.08c2.206 0 4-1.794 4-4 0-0.849-0.27-1.634-0.724-2.283l0.51-2.549a10.99 10.99 0 0 0 0.214-2.158c0-6.071-4.938-11.009-11.009-11.009h-3.606a8.907 8.907 0 0 0-8.19 5.335 7.292 7.292 0 0 0-3.053 7.473l0.582 2.909a3.968 3.968 0 0 0-0.724 2.283c0 2.206 1.794 4 4 4h0.08a7.01 7.01 0 0 0 4.396 5.522l-0.279 1.393-6.162-0.616a13.457 13.457 0 0 1-2.1-0.398 9.513 9.513 0 0 0-0.935-3.136l-4.465-8.931c0.287-0.553 0.465-1.17 0.465-1.834 0-0.703-0.198-1.355-0.518-1.93l1.163-1.213a8.42 8.42 0 0 0 2.355-5.857v-0.236l-0.105-0.211c-0.131-0.261-1.435-2.553-6.895-2.553h-1v2.045a7.77 7.77 0 0 0-4.707 2.248l-0.51 0.51 2.217 4.433v5.527l-4 8a9.528 9.528 0 0 0-1 4.237c0 3.301 1.792 6.185 4.45 7.752-0.277 0.343-0.45 0.773-0.45 1.248v6h-2c-1.103 0-2 0.897-2 2v10c0 1.103 0.897 2 2 2h28v2c0 1.103 0.897 2 2 2h28c1.103 0 2-0.897 2-2v-22c0-1.103-0.897-2-2-2h-1.356a8.983 8.983 0 0 0 3.356-7zm-6.618-19h-2.382c-0.027 0-0.052 8e-3 -0.079 8e-3 0.523-1.259 0.859-2.59 0.999-3.946a5.76 5.76 0 0 1 2.844 1.175zm-4.382 4c0-0.147 0.018-0.289 0.048-0.427l0.556-1.001a1.991 1.991 0 0 1 1.396-0.572h2v4h-2c-1.103 0-2-0.897-2-2zm-2.992-8.673c0.337-0.341 1.388-1.132 3.992-1.297v0.601c0 1.97-0.49 3.922-1.417 5.659l-0.784-0.817a6.423 6.423 0 0 1-1.791-4.146zm-19.085 26.753-2.369 1.421-0.876-2.628 1.039 0.104zm6.359-1.103 1.039-0.104-0.876 2.628-2.369-1.421zm4.718-10.977v-4c1.103 0 2 0.897 2 2s-0.897 2-2 2zm-20-2c0-1.103 0.897-2 2-2v4c-1.103 0-2-0.897-2-2zm2-5v1c-0.538 0-1.05 0.11-1.52 0.304l-0.377-1.888a5.295 5.295 0 0 1 2.26-5.457l0.45-0.3 0.116-0.289a6.92 6.92 0 0 1 6.456-4.37h3.606c4.967 0 9.009 4.042 9.009 9.009 0 0.593-0.059 1.187-0.175 1.767l-0.306 1.528a3.963 3.963 0 0 0-1.519-0.304v-1a2.996 2.996 0 0 0-2.58-2.958c0.36-0.6 0.58-1.293 0.58-2.042 0-2.206-1.794-4-4-4v2c1.103 0 2 0.897 2 2s-0.897 2-2 2h-2c-2.206 0-4-1.794-4-4h-2c0 0.716 0.126 1.404 0.357 2.041a5.008 5.008 0 0 0-4.357 4.959zm2 8v-8c0-1.654 1.346-3 3-3h0.532a5.985 5.985 0 0 0 4.468 2h5c0.551 0 1 0.449 1 1v8c0 2.757-2.243 5-5 5h-4c-2.757 0-5-2.243-5-5zm5 7h4c0.194 0 0.384-0.014 0.574-0.029l0.295 1.476-2.869 1.435-2.87-1.435 0.295-1.476c0.191 0.015 0.381 0.029 0.575 0.029zm-5.503 2.655 1.949 5.844 5.554-3.333 5.554 3.333 1.949-5.844 3.661-0.366c0.637-0.064 1.267-0.18 1.89-0.321a8.977 8.977 0 0 0 2.578 5.386 22.175 22.175 0 0 1-4.46 1.392l-0.172 0.034v-1.78h-2v13h-4v-2c0-1.103-0.897-2-2-2h-12v-9h-2v1.78l-0.173-0.035a22.186 22.186 0 0 1-4.459-1.392 8.972 8.972 0 0 0 2.578-5.386c0.623 0.142 1.253 0.258 1.89 0.321zm-9.681 15.345a2.997 2.997 0 0 1-1.816 1.816v-1.816zm-3.816 6h-8v-2h8zm2-1.816a2.997 2.997 0 0 1 1.816 1.816h-1.816zm3.892 1.816a5.006 5.006 0 0 0-1.895-3 5.006 5.006 0 0 0 1.895-3h3.134c-0.635 0.838-1.026 1.87-1.026 3s0.391 2.162 1.026 3zm0.074-14.266c1.128 0.407 2.286 0.736 3.468 0.973l0.566 0.113v5.18h-4v-5.903c0-0.125-0.015-0.245-0.034-0.363zm4.034 11.266c0-1.654 1.346-3 3-3s3 1.346 3 3-1.346 3-3 3-3-1.346-3-3zm6.974-3h3.127c0.168 0.824 0.556 1.56 1.075 2.182a1.999 1.999 0 0 0-1.176 1.818v2h-3.026c0.635-0.838 1.026-1.87 1.026-3s-0.391-2.162-1.026-3zm5.026 5.816v-1.816h1.816a2.997 2.997 0 0 1-1.816 1.816zm2-4a2.997 2.997 0 0 1-1.816-1.816h1.816zm-2 6.368a2.997 2.997 0 0 1 1.816 1.816h-1.816zm3.899 1.816a4.994 4.994 0 0 0-1.93-3 4.994 4.994 0 0 0 1.93-3h3.127c-0.635 0.838-1.026 1.87-1.026 3s0.391 2.162 1.026 3zm4.101-3c0-1.654 1.346-3 3-3s3 1.346 3 3-1.346 3-3 3-3-1.346-3-3zm6.974-3h3.127a4.994 4.994 0 0 0 1.93 3 4.994 4.994 0 0 0-1.93 3h-3.127c0.635-0.838 1.026-1.87 1.026-3s-0.391-2.162-1.026-3zm7.026 1.816a2.997 2.997 0 0 1-1.816-1.816h1.816zm0 2.368v1.816h-1.816a2.997 2.997 0 0 1 1.816-1.816zm2-0.184h4v2h-4zm0-2v-2h4v2zm-4-4v-2h8v2zm0-4v-2h8v2zm-2-6v10h-8v-9.18l0.565-0.113a24.18 24.18 0 0 0 5.841-1.981c0.524 0.313 1.08 0.573 1.665 0.776a1.944 1.944 0 0 0-0.071 0.498zm-39.605-25.429 0.556 1.002c0.031 0.138 0.049 0.28 0.049 0.427 0 1.103-0.897 2-2 2h-2v-4h2a1.99 1.99 0 0 1 1.395 0.571zm-0.395-8.541c2.632 0.167 3.677 0.971 3.992 1.289a6.43 6.43 0 0 1-1.791 4.154l-0.784 0.817a12.047 12.047 0 0 1-1.417-5.659zm-1.92 2.032c0.14 1.356 0.476 2.687 0.999 3.946-0.027-1e-3 -0.052-8e-3 -0.079-8e-3h-2.382l-1.381-2.763a5.76 5.76 0 0 1 2.843-1.175zm-6.08 22.938c0-1.154 0.273-2.31 0.789-3.342l3.829-7.658h2.382c0.765 0 1.473-0.227 2.082-0.601l4.129 8.259a7.512 7.512 0 0 1 0.789 3.342c0 3.86-3.14 7-7 7s-7-3.14-7-7zm7 9c0.029 0 0.057-4e-3 0.086-4e-3l4.892-7e-3a0.207 0.207 0 0 1 0.022 0.108v1.903h-8v-2l2.919-4e-3c0.027 0 0.054 4e-3 0.081 4e-3zm-3 4h8v2h-8zm4 4v2h-8v-2zm-8 8h8v2h-8zm10 2v-2h18v2zm20 2h22v2h-22zm24 2v-2h4v2zm4-22v2h-8v-2zm-14-9v-0.111c0-1.081 0.255-2.164 0.739-3.13l4.179-8.359a3.97 3.97 0 0 0 2.082 0.6h2.382l3.879 7.758c0.484 0.967 0.739 2.05 0.739 3.131v0.111c0 3.86-3.14 7-7 7s-7-3.14-7-7z"/>
 </g>
</svg>
