<svg height="512" viewBox="0 0 511.98 511.98" width="512" xmlns="http://www.w3.org/2000/svg"><circle cx="255.99" cy="255.99" fill="#ffe07d" r="248.49"/><g fill="#ffc250"><path d="M275.424 503.726c-6.411.497-12.898.752-19.436.752C118.75 504.478 7.5 393.227 7.5 255.99S118.75 7.503 255.988 7.503c6.538 0 13.025.255 19.436.752C147.261 18.157 46.359 125.291 46.359 255.99s100.902 237.833 229.065 247.736z"/><circle cx="255.99" cy="255.99" r="189.394"/></g><g><path d="M437.004 74.977C388.654 26.627 324.369 0 255.99 0S123.326 26.627 74.977 74.977C26.627 123.326 0 187.611 0 255.99s26.627 132.664 74.977 181.014c48.35 48.349 112.635 74.977 181.014 74.977 101.791 0 193.905-60.274 234.672-153.557a7.5 7.5 0 0 0-13.745-6.007C438.538 440.236 351.819 496.98 255.99 496.98c-64.372 0-124.891-25.067-170.407-70.583S15 320.362 15 255.99 40.067 131.1 85.583 85.583C131.1 40.067 191.618 15 255.99 15s124.891 25.067 170.407 70.583C471.914 131.1 496.98 191.618 496.98 255.99c0 23.545-3.383 46.801-10.056 69.122a7.5 7.5 0 1 0 14.372 4.296c7.089-23.716 10.684-48.417 10.684-73.418 0-68.379-26.627-132.664-74.976-181.013z"/><path d="M117.701 126.361a7.501 7.501 0 0 0-10.579.758C76.154 162.865 59.1 208.633 59.1 255.99c0 108.565 88.325 196.89 196.89 196.89s196.89-88.325 196.89-196.89S364.556 59.1 255.99 59.1c-46.376 0-91.42 16.438-126.833 46.285-3.167 2.669-3.571 7.401-.901 10.568s7.402 3.571 10.568.901C171.536 89.284 213.146 74.1 255.99 74.1c100.294 0 181.89 81.596 181.89 181.89s-81.596 181.89-181.89 181.89S74.1 356.285 74.1 255.99c0-43.75 15.753-86.03 44.358-119.049a7.5 7.5 0 0 0-.757-10.58z"/><path d="M330.683 149.873v-49.715a7.5 7.5 0 0 0-15 0v49.715a7.5 7.5 0 0 0 15 0zM272.789 92.658c-13.398 0-24.298 10.9-24.298 24.298v16.118c0 13.398 10.9 24.298 24.298 24.298s24.298-10.9 24.298-24.298v-16.118c-.001-13.398-10.9-24.298-24.298-24.298zm9.297 40.416c0 5.127-4.171 9.298-9.298 9.298s-9.298-4.171-9.298-9.298v-16.118c0-5.127 4.171-9.298 9.298-9.298s9.298 4.171 9.298 9.298zM205.596 92.658c-13.398 0-24.298 10.9-24.298 24.298v16.118c0 13.398 10.9 24.298 24.298 24.298s24.298-10.9 24.298-24.298v-16.118c0-13.398-10.9-24.298-24.298-24.298zm9.298 40.416c0 5.127-4.171 9.298-9.298 9.298s-9.298-4.171-9.298-9.298v-16.118c0-5.127 4.171-9.298 9.298-9.298s9.298 4.171 9.298 9.298zM170.902 349.626v49.714a7.5 7.5 0 0 0 15 0v-49.714a7.5 7.5 0 0 0-15 0zM228.796 342.126c-13.398 0-24.298 10.9-24.298 24.298v16.119c0 13.398 10.9 24.298 24.298 24.298s24.298-10.9 24.298-24.298v-16.119c.001-13.398-10.9-24.298-24.298-24.298zm9.299 40.416c0 5.127-4.171 9.298-9.298 9.298s-9.298-4.171-9.298-9.298v-16.119c0-5.127 4.171-9.298 9.298-9.298s9.298 4.171 9.298 9.298zM295.989 342.126c-13.398 0-24.298 10.9-24.298 24.298v16.119c0 13.398 10.9 24.298 24.298 24.298s24.298-10.9 24.298-24.298v-16.119c0-13.398-10.9-24.298-24.298-24.298zm9.298 40.416c0 5.127-4.171 9.298-9.298 9.298s-9.298-4.171-9.298-9.298v-16.119c0-5.127 4.171-9.298 9.298-9.298s9.298 4.171 9.298 9.298zM338.883 349.626v49.714a7.5 7.5 0 0 0 15 0v-49.714a7.5 7.5 0 0 0-15 0zM397.875 234.301v-49.715a7.5 7.5 0 0 0-15 0v49.715a7.5 7.5 0 0 0 15 0zM315.683 217.503c0 13.398 10.9 24.298 24.298 24.298s24.298-10.9 24.298-24.298v-16.119c0-13.398-10.9-24.298-24.298-24.298s-24.298 10.9-24.298 24.298zm15-16.119c0-5.127 4.171-9.298 9.298-9.298s9.298 4.171 9.298 9.298v16.119c0 5.127-4.171 9.298-9.298 9.298s-9.298-4.171-9.298-9.298zM289.586 177.086a7.5 7.5 0 0 0-7.5 7.5v49.715a7.5 7.5 0 0 0 15 0v-49.715a7.5 7.5 0 0 0-7.5-7.5zM248.49 234.301a7.5 7.5 0 0 0 15 0v-49.715a7.5 7.5 0 0 0-15 0zM222.394 241.801a7.5 7.5 0 0 0 7.5-7.5v-49.715a7.5 7.5 0 0 0-15 0v49.715a7.5 7.5 0 0 0 7.5 7.5zM147.701 201.384v16.119c0 13.398 10.9 24.298 24.298 24.298s24.298-10.9 24.298-24.298v-16.119c0-13.398-10.9-24.298-24.298-24.298s-24.298 10.9-24.298 24.298zm33.596 0v16.119c0 5.127-4.171 9.298-9.298 9.298s-9.298-4.171-9.298-9.298v-16.119c0-5.127 4.171-9.298 9.298-9.298s9.298 4.171 9.298 9.298zM121.605 177.086a7.5 7.5 0 0 0-7.5 7.5v49.715a7.5 7.5 0 0 0 15 0v-49.715a7.5 7.5 0 0 0-7.5-7.5zM349.279 285.813v16.118c0 13.398 10.9 24.298 24.298 24.298s24.298-10.9 24.298-24.298v-16.118c0-13.398-10.9-24.298-24.298-24.298s-24.298 10.9-24.298 24.298zm33.596 0v16.118c0 5.127-4.171 9.298-9.298 9.298s-9.298-4.171-9.298-9.298v-16.118c0-5.127 4.171-9.298 9.298-9.298s9.298 4.171 9.298 9.298zM315.683 318.729a7.5 7.5 0 0 0 15 0v-49.715a7.5 7.5 0 0 0-15 0zM248.49 301.931c0 13.398 10.9 24.298 24.298 24.298s24.298-10.9 24.298-24.298v-16.118c0-13.398-10.9-24.298-24.298-24.298s-24.298 10.9-24.298 24.298zm15-16.118c0-5.127 4.171-9.298 9.298-9.298s9.298 4.171 9.298 9.298v16.118c0 5.127-4.171 9.298-9.298 9.298s-9.298-4.171-9.298-9.298zM214.894 318.729a7.5 7.5 0 0 0 15 0v-49.715a7.5 7.5 0 0 0-15 0zM196.297 318.729v-49.715a7.5 7.5 0 0 0-15 0v49.715a7.5 7.5 0 0 0 15 0zM114.105 285.813v16.118c0 13.398 10.9 24.298 24.298 24.298s24.298-10.9 24.298-24.298v-16.118c0-13.398-10.9-24.298-24.298-24.298s-24.298 10.9-24.298 24.298zm33.596 0v16.118c0 5.127-4.171 9.298-9.298 9.298s-9.298-4.171-9.298-9.298v-16.118c0-5.127 4.171-9.298 9.298-9.298s9.298 4.171 9.298 9.298z"/></g></svg>