<svg version="1.1" xmlns="http://www.w3.org/2000/svg">
 <g transform="scale(8.5333)">
  <path d="m9 33v-29a3 3 0 0 1 3-3h33.17a2 2 0 0 1 1.417 0.587l7.826 7.826a2 2 0 0 1 0.587 1.417v45.17a3 3 0 0 1-3 3h-40a3 3 0 0 1-3-3z" fill="#d1d4dc"/>
  <rect x="1" y="33" width="34" height="20" rx="1" fill="#ffcf38"/>
  <path d="m54.82 10h-4.94a3.871 3.871 0 0 1-3.88-3.88v-4.94c0.22 0.1 0.42 0.24 0.59 0.41l7.82 7.82c0.17 0.17 0.31 0.37 0.41 0.59z" fill="#9096a2"/>
  <g fill="#373737">
   <path d="m0 34v18a2 2 0 0 0 2 2h6v2a4 4 0 0 0 4 4h40a4 4 0 0 0 4-4v-45.17a2.984 2.984 0 0 0-0.255-1.2 0.459 0.459 0 0 0-0.033-0.062 2.975 2.975 0 0 0-0.592-0.861l-7.826-7.827a2.975 2.975 0 0 0-0.861-0.592 0.459 0.459 0 0 0-0.062-0.033 2.984 2.984 0 0 0-1.201-0.255h-33.17a4 4 0 0 0-4 4v24a1 1 0 0 0 2 0v-24a2 2 0 0 1 2-2h33v4.12a4.885 4.885 0 0 0 4.88 4.88h4.12v45a2 2 0 0 1-2 2h-40a2 2 0 0 1-2-2v-2h24a2 2 0 0 0 2-2v-18a2 2 0 0 0-2-2h-32a2 2 0 0 0-2 2zm47-27.88v-2.706l5.586 5.586h-2.706a2.883 2.883 0 0 1-2.88-2.88zm-13 45.88h-32v-18h32z"/>
   <path d="m15 9h24a1 1 0 0 0 0-2h-24a1 1 0 0 0 0 2zm0 5h24a1 1 0 0 0 0-2h-24a1 1 0 0 0 0 2zm0 5h34a1 1 0 0 0 0-2h-34a1 1 0 0 0 0 2zm0 5h34a1 1 0 0 0 0-2h-34a1 1 0 0 0 0 2zm0 5h34a1 1 0 0 0 0-2h-34a1 1 0 0 0 0 2zm34 3h-9a1 1 0 0 0 0 2h9a1 1 0 0 0 0-2zm0 5h-9a1 1 0 0 0 0 2h9a1 1 0 0 0 0-2zm0 5h-9a1 1 0 0 0 0 2h9a1 1 0 0 0 0-2zm0 5h-9a1 1 0 0 0 0 2h9a1 1 0 0 0 0-2zm0 5h-9a1 1 0 0 0 0 2h9a1 1 0 0 0 0-2zm-32-3a4 4 0 0 0 4-4v-4a4 4 0 1 0-8 0v4a4 4 0 0 0 4 4zm-2-8a2 2 0 1 1 4 0v4a2 2 0 1 1-4 0zm-8 8h4a1 1 0 0 0 0-2h-4v-9a1 1 0 0 0-2 0v9a2 2 0 0 0 2 2zm20 0a4 4 0 0 0 4-4v-1a1 1 0 0 0-1-1h-2a1 1 0 0 0 0 2h1a2 2 0 1 1-4 0v-4a2 2 0 0 1 3.887-0.667 1 1 0 0 0 1.884-0.666 4 4 0 0 0-7.771 1.333v4a4 4 0 0 0 4 4z"/>
  </g>
 </g>
</svg>
