<?xml version="1.0" encoding="UTF-8" standalone="no"?>
<svg
   width="512"
   height="512"
   viewBox="0 0 512.00001 512.00001"
   version="1.1"
   id="svg20"
   sodipodi:docname="icon_instagram_01.svg"
   inkscape:version="1.1 (1:1.1+202106031931+af4d65493e)"
   xmlns:inkscape="http://www.inkscape.org/namespaces/inkscape"
   xmlns:sodipodi="http://sodipodi.sourceforge.net/DTD/sodipodi-0.dtd"
   xmlns="http://www.w3.org/2000/svg"
   xmlns:svg="http://www.w3.org/2000/svg">
  <sodipodi:namedview
     id="namedview22"
     pagecolor="#ffffff"
     bordercolor="#666666"
     borderopacity="1.0"
     inkscape:pageshadow="2"
     inkscape:pageopacity="0.0"
     inkscape:pagecheckerboard="0"
     showgrid="false"
     inkscape:zoom="0.12928344"
     inkscape:cx="1751.9645"
     inkscape:cy="2107.7718"
     inkscape:window-width="1920"
     inkscape:window-height="1016"
     inkscape:window-x="1920"
     inkscape:window-y="27"
     inkscape:window-maximized="1"
     inkscape:current-layer="svg20" />
  <defs
     id="defs12">
    <radialGradient
       id="0"
       cx="217.75999"
       cy="3290.99"
       r="4271.9199"
       gradientUnits="userSpaceOnUse"
       gradientTransform="scale(0.1521681)">
      <stop
         offset=".09"
         stop-color="#fa8f21"
         id="stop2" />
      <stop
         offset=".78"
         stop-color="#d82d7e"
         id="stop4" />
    </radialGradient>
    <radialGradient
       id="1"
       cx="2330.6101"
       cy="3182.95"
       r="3759.3301"
       gradientUnits="userSpaceOnUse"
       gradientTransform="scale(0.1521681)">
      <stop
         offset=".64"
         stop-color="#8c3aaa"
         stop-opacity="0"
         id="stop7" />
      <stop
         offset="1"
         stop-color="#8c3aaa"
         id="stop9" />
    </radialGradient>
  </defs>
  <path
     d="M 129.82982,510.1892 C 99.380985,508.80447 82.840313,503.73727 71.838559,499.44613 57.260855,493.77026 46.867774,487.014 35.926888,476.08833 24.986002,465.16266 18.214521,454.76958 12.569085,440.19187 8.2779445,429.19012 3.2107469,412.64945 1.8260172,382.20061 0.3043362,349.28665 0,339.41094 0,256.02283 0,172.63471 0.33476982,162.77421 1.8108004,129.82982 3.1955301,99.380985 8.2931614,82.870746 12.553868,71.838559 18.229738,57.260855 25.001219,46.867774 35.911671,35.911671 46.837341,24.986002 57.230422,18.199305 71.823342,12.553868 82.825096,8.2627277 99.365768,3.1955301 129.8146,1.8108004 162.74378,0.3043362 172.63471,0 255.99239,0 339.38051,0 349.241,0.33476982 382.1854,1.8108004 c 30.44883,1.3847297 46.95907,6.482361 57.99126,10.7430676 14.5777,5.645437 24.97078,12.432134 35.91167,23.357803 10.94089,10.92567 17.68193,21.333968 23.3578,35.911671 4.29114,11.001754 9.35834,27.542426 10.74307,57.991258 1.50646,32.9444 1.8108,42.80489 1.8108,126.19301 0,83.35768 -0.30434,93.24861 -1.8108,126.193 -1.38473,30.44884 -6.48236,46.98951 -10.74307,57.99126 -5.67587,14.57771 -12.43213,24.97079 -23.3578,35.89646 -10.92567,10.92567 -21.33397,17.68193 -35.91167,23.3578 -11.00176,4.29114 -27.54243,9.35834 -57.99126,10.74307 C 349.27144,511.69566 339.38051,512 255.99239,512 c -83.35768,0 -93.24861,-0.28912 -126.16257,-1.8108"
     fill="url(#0)"
     id="path14"
     style="fill:url(#0);stroke-width:0.152168" />
  <path
     d="M 129.82982,510.1892 C 99.380985,508.80447 82.840313,503.73727 71.838559,499.44613 57.260855,493.77026 46.867774,487.014 35.926888,476.08833 24.986002,465.16266 18.214521,454.76958 12.569085,440.19187 8.2779445,429.19012 3.2107469,412.64945 1.8260172,382.20061 0.3043362,349.28665 0,339.41094 0,256.02283 0,172.63471 0.33476982,162.77421 1.8108004,129.82982 3.1955301,99.380985 8.2931614,82.870746 12.553868,71.838559 18.229738,57.260855 25.001219,46.867774 35.911671,35.911671 46.837341,24.986002 57.230422,18.199305 71.823342,12.553868 82.825096,8.2627277 99.365768,3.1955301 129.8146,1.8108004 162.74378,0.3043362 172.63471,0 255.99239,0 339.38051,0 349.241,0.33476982 382.1854,1.8108004 c 30.44883,1.3847297 46.95907,6.482361 57.99126,10.7430676 14.5777,5.645437 24.97078,12.432134 35.91167,23.357803 10.94089,10.92567 17.68193,21.333968 23.3578,35.911671 4.29114,11.001754 9.35834,27.542426 10.74307,57.991258 1.50646,32.9444 1.8108,42.80489 1.8108,126.19301 0,83.35768 -0.30434,93.24861 -1.8108,126.193 -1.38473,30.44884 -6.48236,46.98951 -10.74307,57.99126 -5.67587,14.57771 -12.43213,24.97079 -23.3578,35.89646 -10.92567,10.92567 -21.33397,17.68193 -35.91167,23.3578 -11.00176,4.29114 -27.54243,9.35834 -57.99126,10.74307 C 349.27144,511.69566 339.38051,512 255.99239,512 c -83.35768,0 -93.24861,-0.28912 -126.16257,-1.8108"
     fill="url(#1)"
     id="path16"
     style="fill:url(#1);stroke-width:0.152168" />
  <path
     d="m 193.13936,257.09105 c 0,-35.01541 28.37783,-63.40845 63.39323,-63.40845 35.0154,0 63.40844,28.39304 63.40844,63.40845 0,35.0154 -28.39304,63.40844 -63.40844,63.40844 -35.0154,0 -63.39323,-28.39304 -63.39323,-63.40844 m -34.27739,0 c 0,53.94359 43.72703,97.67061 97.67062,97.67061 53.94359,0 97.67061,-43.72702 97.67061,-97.67061 0,-53.9436 -43.72702,-97.67062 -97.67061,-97.67062 -53.94359,0 -97.6691,43.72398 -97.6691,97.67062 M 335.2461,155.54775 a 22.825215,22.825215 0 1 0 22.83435,-22.81608 h -0.009 A 22.835866,22.835866 0 0 0 335.2461,155.54775 M 179.6877,411.91904 c -18.54473,-0.84453 -28.62434,-3.93354 -35.32278,-6.54323 -8.88053,-3.45726 -15.21681,-7.57492 -21.87873,-14.22771 -6.66192,-6.65279 -10.78568,-12.98299 -14.22772,-21.86352 -2.6112,-6.69539 -5.70022,-16.77805 -6.54323,-35.32278 -0.92214,-20.04967 -1.10626,-26.07248 -1.10626,-76.86771 0,-50.79523 0.19934,-56.80131 1.10626,-76.86772 0.84454,-18.54472 3.95637,-28.6076 6.54323,-35.32278 3.45726,-8.88053 7.57493,-15.21681 14.22772,-21.87873 6.65279,-6.66192 12.98298,-10.78567 21.87873,-14.22771 6.69539,-2.61121 16.77805,-5.70022 35.32278,-6.54323 20.04967,-0.92214 26.07248,-1.10626 76.84489,-1.10626 50.77241,0 56.80131,0.19629 76.86771,1.1093 18.54473,0.84453 28.60761,3.95637 35.32278,6.54323 8.88053,3.44204 15.21681,7.57493 21.87873,14.22772 6.66192,6.65279 10.77046,12.9982 14.22772,21.87873 2.6112,6.69539 5.70022,16.77805 6.54323,35.32278 0.92214,20.0664 1.10626,26.07248 1.10626,76.86771 0,50.79523 -0.18412,56.80131 -1.10626,76.86772 -0.84453,18.54472 -3.94876,28.62434 -6.54323,35.32278 -3.45726,8.88053 -7.57493,15.21681 -14.22772,21.86351 -6.65279,6.6467 -12.9982,10.77046 -21.87873,14.22772 -6.69539,2.6112 -16.77805,5.70021 -35.32278,6.54323 -20.04967,0.92213 -26.07248,1.10626 -76.86771,1.10626 -50.79523,0 -56.80131,-0.18413 -76.84489,-1.10626 M 178.11276,68.032835 c -20.24901,0.922139 -34.08566,4.132886 -46.16932,8.83488 -12.5067,4.855684 -23.10825,11.37 -33.694586,21.939596 -10.586334,10.569599 -17.083912,21.172669 -21.939596,33.694579 -4.701994,12.09128 -7.912741,25.92032 -8.83488,46.16933 -0.937355,20.28096 -1.151912,26.76484 -1.151912,78.41983 0,51.65498 0.214557,58.13886 1.151912,78.41982 0.922139,20.25054 4.132886,34.07805 8.83488,46.16933 4.855684,12.50669 11.354783,23.12955 21.939596,33.69458 10.584816,10.56503 21.172666,17.07022 33.694586,21.9396 12.10649,4.70199 25.92031,7.91274 46.16932,8.83488 20.29161,0.92213 26.76485,1.15191 78.41983,1.15191 51.65498,0 58.13886,-0.21456 78.41983,-1.15191 20.25053,-0.92214 34.07804,-4.13289 46.16932,-8.83488 12.5067,-4.86938 23.10825,-11.37 33.69458,-21.9396 10.58634,-10.5696 17.07022,-21.18789 21.9396,-33.69458 4.70199,-12.09128 7.92796,-25.92032 8.83488,-46.16933 0.92214,-20.29618 1.13669,-26.76484 1.13669,-78.41982 0,-51.65499 -0.21455,-58.13887 -1.13669,-78.41983 -0.92214,-20.25053 -4.13289,-34.08566 -8.83488,-46.16933 -4.86938,-12.50669 -11.37,-23.10824 -21.9396,-33.694579 -10.56959,-10.586334 -21.18788,-17.083912 -33.67936,-21.939596 -12.1065,-4.701994 -25.93553,-7.927958 -46.16933,-8.83488 -20.284,-0.926704 -26.76484,-1.151912 -78.41222,-1.151912 -51.64737,0 -58.14343,0.214557 -78.43504,1.151912"
     fill="#ffffff"
     id="path18"
     style="stroke-width:0.152168" />
</svg>
