<?xml version="1.0" encoding="UTF-8" standalone="no"?>
<svg
   version="1.1"
   id="svg16"
   sodipodi:docname="Icon_log_01.svg"
   inkscape:version="1.1 (1:1.1+202106031931+af4d65493e)"
   xmlns:inkscape="http://www.inkscape.org/namespaces/inkscape"
   xmlns:sodipodi="http://sodipodi.sourceforge.net/DTD/sodipodi-0.dtd"
   xmlns="http://www.w3.org/2000/svg"
   xmlns:svg="http://www.w3.org/2000/svg">
  <defs
     id="defs20" />
  <sodipodi:namedview
     id="namedview18"
     pagecolor="#ffffff"
     bordercolor="#666666"
     borderopacity="1.0"
     inkscape:pageshadow="2"
     inkscape:pageopacity="0.0"
     inkscape:pagecheckerboard="0"
     showgrid="false"
     inkscape:zoom="1.13"
     inkscape:cx="132.30088"
     inkscape:cy="150"
     inkscape:window-width="1920"
     inkscape:window-height="1016"
     inkscape:window-x="1920"
     inkscape:window-y="27"
     inkscape:window-maximized="1"
     inkscape:current-layer="svg16" />
  <g
     fill="none"
     id="g14"
     transform="scale(8.5333333)">
    <path
       d="M 9,33 V 4 a 3,3 0 0 1 3,-3 h 33.17 a 2,2 0 0 1 1.417,0.587 l 7.826,7.826 A 2,2 0 0 1 55,10.83 V 56 a 3,3 0 0 1 -3,3 H 12 A 3,3 0 0 1 9,56 Z"
       fill="#d1d4dc"
       id="path2" />
    <rect
       fill="#ffcf38"
       height="20"
       rx="1"
       width="34"
       x="1"
       y="33"
       id="rect4" />
    <path
       d="M 54.82,10 H 49.88 A 3.871,3.871 0 0 1 46,6.12 V 1.18 c 0.22,0.1 0.42,0.24 0.59,0.41 l 7.82,7.82 c 0.17,0.17 0.31,0.37 0.41,0.59 z"
       fill="#9096a2"
       id="path6" />
    <g
       fill="#373737"
       id="g12">
      <path
         d="m 0,34 v 18 a 2,2 0 0 0 2,2 h 6 v 2 a 4,4 0 0 0 4,4 h 40 a 4,4 0 0 0 4,-4 V 10.83 A 2.984,2.984 0 0 0 55.745,9.63 0.459,0.459 0 0 0 55.712,9.568 2.975,2.975 0 0 0 55.12,8.707 L 47.294,0.88 A 2.975,2.975 0 0 0 46.433,0.288 0.459,0.459 0 0 0 46.371,0.255 2.984,2.984 0 0 0 45.17,0 H 12 A 4,4 0 0 0 8,4 v 24 a 1,1 0 0 0 2,0 V 4 A 2,2 0 0 1 12,2 H 45 V 6.12 A 4.885,4.885 0 0 0 49.88,11 H 54 v 45 a 2,2 0 0 1 -2,2 H 12 a 2,2 0 0 1 -2,-2 v -2 h 24 a 2,2 0 0 0 2,-2 V 34 A 2,2 0 0 0 34,32 H 2 A 2,2 0 0 0 0,34 Z M 47,6.12 V 3.414 L 52.586,9 H 49.88 A 2.883,2.883 0 0 1 47,6.12 Z M 34,52 H 2 V 34 h 32 z"
         id="path8" />
      <path
         d="M 15,9 H 39 A 1,1 0 0 0 39,7 H 15 a 1,1 0 0 0 0,2 z m 0,5 h 24 a 1,1 0 0 0 0,-2 H 15 a 1,1 0 0 0 0,2 z m 0,5 h 34 a 1,1 0 0 0 0,-2 H 15 a 1,1 0 0 0 0,2 z m 0,5 h 34 a 1,1 0 0 0 0,-2 H 15 a 1,1 0 0 0 0,2 z m 0,5 h 34 a 1,1 0 0 0 0,-2 H 15 a 1,1 0 0 0 0,2 z m 34,3 h -9 a 1,1 0 0 0 0,2 h 9 a 1,1 0 0 0 0,-2 z m 0,5 h -9 a 1,1 0 0 0 0,2 h 9 a 1,1 0 0 0 0,-2 z m 0,5 h -9 a 1,1 0 0 0 0,2 h 9 a 1,1 0 0 0 0,-2 z m 0,5 h -9 a 1,1 0 0 0 0,2 h 9 a 1,1 0 0 0 0,-2 z m 0,5 h -9 a 1,1 0 0 0 0,2 h 9 a 1,1 0 0 0 0,-2 z M 17,49 a 4,4 0 0 0 4,-4 v -4 a 4,4 0 1 0 -8,0 v 4 a 4,4 0 0 0 4,4 z m -2,-8 a 2,2 0 1 1 4,0 v 4 a 2,2 0 1 1 -4,0 z m -8,8 h 4 a 1,1 0 0 0 0,-2 H 7 v -9 a 1,1 0 0 0 -2,0 v 9 a 2,2 0 0 0 2,2 z m 20,0 a 4,4 0 0 0 4,-4 v -1 a 1,1 0 0 0 -1,-1 h -2 a 1,1 0 0 0 0,2 h 1 a 2,2 0 1 1 -4,0 V 41 A 2,2 0 0 1 28.887,40.333 1,1 0 0 0 30.771,39.667 4,4 0 0 0 23,41 v 4 a 4,4 0 0 0 4,4 z"
         id="path10" />
    </g>
  </g>
</svg>
