<svg height="512" width="512" xmlns="http://www.w3.org/2000/svg"><path d="M393.916 365.8c-1.77 15.88-4.15 32.44-7.19 49.68 0 0-10.59 1.9-29.02 4.01-23.27 2.69-59.02 5.72-101.7 5.72-76.47 0-130.72-9.73-130.72-9.73-3.05-17.3-5.43-33.89-7.21-49.82-14.98-134.28 13.05-220.82 47.67-275.13 31.53-49.47 68.54-72.18 83.49-79.86 4.3-2.21 6.77-3.17 6.77-3.17s49.67 19.35 90.26 83.03c34.64 54.33 62.67 140.91 47.65 275.27z" fill="#f4eafa"/><path d="M393.916 365.8c-1.77 15.88-4.15 32.44-7.19 49.68 0 0-10.59 1.9-29.02 4.01 43.3-255.96-60.14-370.46-108.47-408.82 4.3-2.21 6.77-3.17 6.77-3.17s49.67 19.35 90.26 83.03c34.64 54.33 62.67 140.91 47.65 275.27z" fill="#c2bce0"/><path d="M393.916 365.8c-1.77 15.88-4.15 32.44-7.19 49.68 0 0-10.59 1.9-29.02 4.01-23.27 2.69-59.02 5.72-101.7 5.72-76.47 0-130.72-9.73-130.72-9.73-3.05-17.3-5.43-33.89-7.21-49.82l.43-.18s57.06 9.73 137.5 9.73c45.88 0 84.14-3.16 108.56-5.89 18.4-2.04 28.94-3.84 28.94-3.84z" fill="#685e68"/><path d="M393.916 365.8c-1.77 15.88-4.15 32.44-7.19 49.68 0 0-10.59 1.9-29.02 4.01 2.95-17.37 5.21-34.08 6.86-50.17 18.4-2.04 28.94-3.84 28.94-3.84z" fill="#433f43"/><path d="M346.266 90.53c-.41.17-9.61 3.79-25.24 7.39-15.88 3.67-38.39 7.33-65.02 7.33-53.43 0-90.26-14.72-90.26-14.72 31.53-49.47 68.54-72.18 83.49-79.86 4.3-2.21 6.77-3.17 6.77-3.17s49.67 19.35 90.26 83.03z" fill="#fd3581"/><path d="M346.266 90.53c-.41.17-9.61 3.79-25.24 7.39-24.1-44.17-52.39-71.85-71.79-87.25 4.3-2.21 6.77-3.17 6.77-3.17s49.67 19.35 90.26 83.03z" fill="#c3186c"/><g fill="#fee97d"><path d="M218.196 425.21c-30 20.31-35.48 53.43-35.48 53.43-.16-.09-.32-.17-.48-.27-34.71-19.18-32.38-59.45-32.38-59.45l37.61 3.46zM330.646 477.89c-.45.25-.89.5-1.35.75 0 0-5.47-33.12-35.47-53.43l44.28-4.08 24.06-2.21s2.29 39.6-31.52 58.97z"/></g><path d="M330.646 477.89c6.88-18.64 7.56-44.73 7.46-56.76l24.06-2.21s2.29 39.6-31.52 58.97z" fill="#fac600"/><path d="M256.006 504.5c-1.43-.76-2.82-1.55-4.15-2.36-43.98-26.6-34.15-76.93-34.15-76.93h76.61s10.43 53.43-38.31 79.29z" fill="#fee97d"/><path d="M256.006 504.5c-1.43-.76-2.82-1.55-4.15-2.36 18.83-26.28 17.98-63.57 16.95-76.93h25.51s10.43 53.43-38.31 79.29zM218.196 425.21c-30 20.31-35.48 53.43-35.48 53.43-.16-.09-.32-.17-.48-.27-12.47-24.26-3.25-44.43 5.23-55.99z" fill="#fac600"/><g><path d="M295.256 236.9c0 21.68-17.57 39.25-39.25 39.25-4.74 0-9.29-.84-13.49-2.38h-.01c-15.02-5.51-25.74-19.94-25.74-36.87s10.72-31.35 25.74-36.86h.01c4.2-1.54 8.75-2.38 13.49-2.38 21.68 0 39.25 17.57 39.25 39.24z" fill="#6ccbff"/><path d="M295.256 236.9c0 21.68-17.57 39.25-39.25 39.25-4.74 0-9.29-.84-13.49-2.38 15.02-5.51 25.74-19.94 25.74-36.87s-10.72-31.35-25.74-36.86c4.2-1.54 8.75-2.38 13.49-2.38 21.68 0 39.25 17.57 39.25 39.24z" fill="#40a6f2"/></g><g fill="#fd3581"><path d="M45.78 395.272s27.403-32.629 70.277-42.894l9.362-163.74S15.271 222.295 45.78 395.272zM466.196 395.27s-9.37-11.15-25.71-22.47c-11.62-8.04-26.76-16.16-44.57-20.42l-9.25-161.84-.11-1.9s110.15 33.66 79.64 206.63z"/></g><path d="M466.196 395.27s-9.37-11.15-25.71-22.47c6.59-112.57-33.74-163.9-53.82-182.26l-.11-1.9s110.15 33.66 79.64 206.63z" fill="#c3186c"/><g><path d="M256.01 190.161c-25.774 0-46.742 20.968-46.742 46.742 2.567 62.01 90.927 61.992 93.485 0 0-25.773-20.969-46.742-46.743-46.742zm0 78.485c-17.503 0-31.742-14.239-31.742-31.742 1.743-42.111 61.748-42.098 63.485 0 0 17.502-14.24 31.742-31.743 31.742z"/><path d="M454.683 238.462a7.5 7.5 0 1 0-12.906 7.643c20.271 34.233 26.745 79.059 19.3 133.407-11.475-10.337-31.517-25.332-57.75-32.928 4.39-52.787 2.304-101.253-6.247-144.922 7.131 3.995 16.473 10.342 25.922 19.949a7.5 7.5 0 1 0 10.693-10.518c-16.632-16.91-33.176-24.991-40.73-28.072-13.373-55.578-40.714-107.155-77.79-142.846a7.499 7.499 0 0 0-10.606.122 7.5 7.5 0 0 0 .122 10.606c10.127 9.897 20.351 21.663 30.043 35.601-44.157 14.658-113.283 14.636-157.336.033 32.126-46.481 68.53-66.051 78.622-70.832 4.26 2.004 13.147 6.597 24.314 14.642 3.362 2.423 8.048 1.66 10.469-1.701s1.66-8.048-1.701-10.469C271.671 5.618 259.252.714 258.732.511a7.498 7.498 0 0 0-5.444 0c-50.545 20.109-114.513 92.76-134.227 182.488-6.61 2.693-20.2 9.251-34.692 22.269-18.152 16.307-41.37 46.385-48.896 97.07a7.5 7.5 0 0 0 14.837 2.204c6.599-45.576 28.719-82.489 64.627-102.875-8.73 45.126-10.537 91.865-6.236 144.9-26.256 7.59-46.315 22.595-57.799 32.94-1.982-14.534-2.976-28.489-2.962-41.639a7.5 7.5 0 0 0-7.492-7.508h-.008a7.5 7.5 0 0 0-7.5 7.492c-.019 18.334 1.816 38.091 5.456 58.723a7.498 7.498 0 0 0 5.437 5.935 7.516 7.516 0 0 0 7.686-2.406c.243-.288 23.135-27.008 58.616-38.294 1.873 17.872 4.463 36.205 7.771 54.974a7.502 7.502 0 0 0 6.062 6.081c.188.034 6.821 1.204 18.535 2.727.964 13.633 6.617 43.376 36.645 59.641a7.499 7.499 0 0 0 10.972-5.37c.04-.243 3.493-20.01 19.292-37.224 2.03 24.983 10.273 50.122 43.084 68.487a7.496 7.496 0 0 0 7.03 0c32.799-18.359 41.044-43.477 43.083-68.456 15.677 17.16 19.255 36.966 19.294 37.193a7.5 7.5 0 0 0 10.972 5.37c30.027-16.265 35.68-46.009 36.645-59.641 11.714-1.523 18.347-2.693 18.535-2.727a7.497 7.497 0 0 0 6.062-6.081c3.31-18.782 5.902-37.107 7.776-54.958 35.453 11.295 58.322 37.989 58.558 38.269a7.5 7.5 0 0 0 13.129-3.52c11.379-64.523 5.022-117.72-18.897-158.113zM178.2 466.696c-15.158-12.116-19.366-29.279-20.492-39.289a887.703 887.703 0 0 0 42.068 3.568c-12.066 12.543-18.403 26.422-21.576 35.721zm77.81 29.195c-31.417-18.841-32.556-50.883-31.605-63.734 19.836.725 43.373.725 63.209 0 .952 12.868-.196 44.898-31.604 63.734zm77.809-29.195c-3.172-9.299-9.509-23.178-21.575-35.721a887.703 887.703 0 0 0 42.068-3.568c-1.126 10.011-5.334 27.173-20.493 39.289zm53.332-107.817c-9.578 1.412-32.098 4.415-62.941 6.512a7.5 7.5 0 0 0-6.974 7.992c.268 4.141 3.91 7.268 7.992 6.974 27.928-1.899 48.864-4.479 60.152-6.06a804.469 804.469 0 0 1-5.129 34.639c-15.207 2.337-62.68 8.773-124.241 8.773-61.556 0-109.029-6.436-124.24-8.773a781.527 781.527 0 0 1-5.099-34.651c18.793 3.693 111.533 10.868 163.79 7.838 9.895-.671 9.441-14.973-.507-14.99-11.302.382-22.722.576-33.944.576-65.182 0-115.365-6.516-131.081-8.823-13.138-128.653 14.464-210.424 44.002-259.267 48.076 17.214 126.717 17.053 174.316-.052 32.874 53.849 56.759 135.863 43.904 259.312z"/><path d="M110.087 439.745c-3.292-2.486-7.957-1.834-10.462 1.444-2.505 3.277-1.875 7.977 1.388 10.5.64.495 15.681 12.378 16.953 35.154.219 4.143 3.814 7.313 7.906 7.07a7.5 7.5 0 0 0 7.07-7.906c-1.67-29.931-21.991-45.609-22.855-46.262zM401.934 439.745c-.864.653-21.185 16.331-22.855 46.263a7.5 7.5 0 0 0 7.07 7.906c4.092.242 7.687-2.928 7.906-7.07 1.268-22.716 16.234-34.597 16.947-35.15a7.5 7.5 0 0 0-9.068-11.949zM306.008 326.486a7.5 7.5 0 0 0-7.5 7.5c.343 9.928 14.659 9.926 15 0a7.5 7.5 0 0 0-7.5-7.5zM356.008 337.496a7.5 7.5 0 0 0 7.5-7.5c-.343-9.928-14.659-9.926-15 0a7.5 7.5 0 0 0 7.5 7.5zM256.008 327.486a7.5 7.5 0 0 0-7.5 7.5c.343 9.928 14.659 9.926 15 0a7.5 7.5 0 0 0-7.5-7.5zM256.008 152.486a7.5 7.5 0 0 0 7.5-7.5c-.343-9.928-14.658-9.926-15 0a7.5 7.5 0 0 0 7.5 7.5zM189.508 131.486a7.5 7.5 0 0 0-7.5 7.5c.343 9.928 14.659 9.926 15 0a7.5 7.5 0 0 0-7.5-7.5zM322.508 131.486a7.5 7.5 0 0 0-7.5 7.5c.343 9.928 14.659 9.926 15 0a7.5 7.5 0 0 0-7.5-7.5zM206.008 326.486a7.5 7.5 0 0 0-7.5 7.5c.343 9.928 14.659 9.926 15 0a7.5 7.5 0 0 0-7.5-7.5zM156.008 322.496a7.5 7.5 0 0 0-7.5 7.5c.343 9.928 14.659 9.926 15 0a7.5 7.5 0 0 0-7.5-7.5z"/></g></svg>